<?xml version="1.0" standalone="no"?>
<!DOCTYPE svg PUBLIC "-//W3C//DTD SVG 20010904//EN"
 "http://www.w3.org/TR/2001/REC-SVG-20010904/DTD/svg10.dtd">
<svg version="1.0" xmlns="http://www.w3.org/2000/svg"
 width="1961.000000pt" height="1846.000000pt" viewBox="0 0 1961.000000 1846.000000"
 preserveAspectRatio="xMidYMid meet">

<g transform="translate(0.000000,1846.000000) scale(0.100000,-0.100000)"
fill="#000000" stroke="none">
<path d="M16065 18443 c-66 -24 -120 -66 -151 -119 l-26 -43 -54 31 c-75 42
-157 48 -251 20 -78 -24 -128 -64 -163 -132 -42 -80 -39 -231 6 -337 3 -6 -3
-14 -14 -17 -29 -10 -83 -67 -103 -111 -23 -50 -25 -171 -4 -241 16 -56 63
-117 106 -139 77 -40 199 -37 245 6 20 19 21 19 38 0 30 -33 116 -65 177 -65
43 -1 70 7 122 32 73 36 117 82 137 143 7 21 15 39 17 39 2 0 17 -15 33 -34
49 -56 119 -80 230 -81 107 0 175 22 226 76 31 33 43 25 44 -26 1 -41 35 -113
73 -154 39 -41 140 -91 185 -91 l32 0 0 -127 c1 -198 20 -301 63 -327 34 -21
46 -5 116 145 54 116 136 167 249 156 29 -3 68 -15 87 -27 l34 -21 11 38 c52
186 67 382 37 485 -22 73 -94 153 -171 191 -30 15 -59 27 -64 27 -5 0 -12 46
-14 103 -5 119 -24 171 -88 241 -75 81 -190 119 -282 93 -26 -7 -28 -5 -28 19
0 94 -92 209 -190 238 -112 33 -219 13 -296 -57 l-48 -44 -29 33 c-66 76 -198
110 -292 77z"/>
<path d="M15755 17241 c-38 -16 -60 -51 -60 -97 0 -69 12 -70 90 -4 38 32 71
63 73 69 4 11 -49 41 -70 40 -7 0 -22 -4 -33 -8z"/>
<path d="M16483 17186 c-15 -13 -26 -26 -23 -29 10 -9 172 -88 175 -85 4 4 8
39 6 66 -3 66 -102 96 -158 48z"/>
<path d="M15782 16957 c-49 -52 -11 -141 59 -139 60 2 94 64 65 120 -25 49
-87 58 -124 19z"/>
<path d="M16427 16950 c-33 -26 -43 -70 -23 -108 17 -33 34 -42 76 -42 39 0
70 29 77 72 5 32 1 41 -25 68 -36 35 -69 38 -105 10z"/>
<path d="M17130 16326 c0 -130 3 -166 13 -166 33 0 103 59 130 108 20 38 67
153 67 166 0 1 -31 1 -68 1 -60 0 -73 4 -105 28 l-37 28 0 -165z"/>
<path d="M15805 15744 c-168 -27 -284 -100 -390 -249 -106 -148 -137 -242
-325 -975 -72 -283 -135 -528 -141 -544 -9 -28 -6 -33 47 -84 39 -36 90 -69
158 -102 94 -46 235 -90 287 -90 l22 0 -6 -232 c-4 -128 -10 -501 -13 -829
l-7 -597 43 -31 c62 -45 240 -133 354 -176 429 -159 1043 -208 1616 -129 94
13 124 21 163 46 68 44 87 87 47 108 -12 6 -78 18 -148 27 -70 8 -139 22 -154
29 -66 34 -74 104 -15 129 39 16 313 42 536 52 l163 6 -5 61 c-3 34 -21 310
-39 613 l-32 553 52 267 c28 148 55 287 58 311 4 23 9 42 13 42 3 0 47 -57 96
-125 l90 -125 50 6 c119 14 299 94 430 191 122 90 208 193 265 316 54 115 64
89 -146 392 -103 149 -266 389 -362 535 -281 424 -364 492 -647 535 -110 16
-306 20 -321 6 -8 -8 -172 3 -356 23 -41 4 -48 3 -48 -13 0 -57 -116 -169
-240 -231 -116 -58 -186 -75 -305 -75 -103 0 -113 2 -164 30 -101 56 -128 141
-76 239 14 26 25 59 25 73 l0 26 -102 -8 c-57 -5 -114 -8 -128 -8 -14 1 -90 3
-170 6 -80 3 -158 3 -175 1z"/>
<path d="M10300 14587 c-25 -7 -84 -35 -130 -61 -2102 -1209 -3781 -2184
-3807 -2212 l-33 -34 0 -129 c0 -123 1 -131 25 -159 13 -16 65 -53 115 -81
l90 -52 2 -1761 3 -1760 615 -357 615 -357 0 -174 0 -173 -405 -234 c-223
-129 -415 -239 -427 -245 -18 -9 -55 9 -255 124 -128 75 -709 410 -1290 747
-581 336 -1059 611 -1062 611 -3 0 -6 -539 -6 -1197 l-1 -1198 -244 -140 -244
-140 37 -22 c20 -12 55 -33 78 -46 33 -20 111 -122 399 -519 l358 -495 246
141 c135 78 820 474 1521 879 702 405 1283 739 1293 743 16 6 17 -36 19 -661
l3 -667 370 -213 370 -214 5 -185 c6 -211 5 -210 104 -260 61 -31 83 -29 160
16 63 38 81 60 107 136 l21 62 76 -41 c41 -23 105 -59 140 -80 l66 -38 30 18
c38 23 3162 1826 3343 1930 l133 76 0 3179 0 3178 -27 -6 c-101 -23 -123 -17
-123 34 0 43 40 91 124 149 85 58 108 90 85 117 -12 15 -29 16 -134 10 -65 -4
-176 -18 -245 -32 -166 -35 -309 -38 -364 -8 -64 33 -81 78 -80 204 0 85 5
117 24 165 59 152 166 252 338 315 l75 27 -94 55 c-418 245 -1741 1004 -1777
1020 -56 25 -180 33 -242 15z m1958 -3259 c-3 -813 -5 -923 -18 -923 -13 0
-16 31 -20 200 -5 195 -6 201 -32 246 -33 56 -87 95 -168 120 -34 10 -65 19
-70 19 -4 0 -11 -17 -15 -37 -9 -52 -24 -78 -37 -65 -7 7 -4 36 7 87 20 88 16
153 -14 219 -24 56 -88 120 -135 136 -53 17 -82 -2 -131 -84 -22 -38 -46 -71
-53 -74 -22 -7 -13 30 20 82 27 43 32 60 31 104 -3 99 -67 186 -145 198 -31 5
-39 -1 -128 -90 -82 -83 -130 -116 -130 -88 0 4 51 57 114 117 106 102 116
114 135 175 11 36 22 81 23 100 2 38 15 63 29 54 13 -8 11 -51 -5 -112 l-14
-53 86 80 c109 99 112 102 159 180 41 68 71 93 58 50 l-7 -24 28 25 c16 13 49
43 74 66 25 22 63 51 85 63 31 17 12 -5 -83 -102 l-124 -124 32 -13 c34 -14
60 -59 60 -102 0 -13 53 70 128 199 89 156 135 227 155 238 28 17 29 17 19 -1
-6 -11 -78 -136 -161 -279 l-150 -260 42 -12 c52 -15 82 -46 105 -106 l18 -46
84 366 c78 339 86 366 110 378 14 8 28 14 33 15 4 0 6 -415 5 -922z m-2588
-4822 c0 -2 16 -93 35 -202 42 -237 59 -277 156 -374 146 -147 472 -321 787
-421 66 -21 87 -39 63 -54 -5 -3 -72 18 -148 46 -119 44 -149 51 -213 52 -61
1 -86 -4 -132 -25 -116 -53 -199 -149 -232 -267 -16 -58 -16 -65 0 -114 9 -29
37 -94 61 -146 35 -73 42 -96 31 -102 -14 -9 -16 -6 -68 96 -33 67 -37 70 -84
83 -40 12 -60 12 -102 3 -107 -24 -249 -144 -364 -305 l-55 -77 -3 44 c-2 31
10 82 42 178 131 393 199 870 195 1366 -1 111 2 206 5 212 7 10 26 16 26 7z"/>
<path d="M12131 11802 c-47 -202 -86 -375 -89 -384 -4 -15 2 -18 32 -18 47 0
82 -24 118 -79 l28 -45 0 447 c0 246 -1 447 -2 447 -2 0 -41 -165 -87 -368z"/>
<path d="M11610 11718 c-65 -62 -118 -116 -119 -120 0 -4 8 -10 20 -13 58 -19
138 -124 139 -182 0 -13 3 -23 8 -23 8 0 142 230 159 274 15 41 16 149 1 164
-7 7 -30 12 -51 12 -37 0 -48 -8 -157 -112z"/>
<path d="M11800 11549 c-24 -41 -56 -95 -71 -122 -16 -26 -29 -49 -29 -52 0
-3 12 -5 26 -5 66 0 150 -71 194 -162 l27 -57 24 102 c50 215 17 341 -97 363
-31 6 -33 4 -74 -67z"/>
<path d="M12032 11353 c-5 -10 -24 -81 -41 -158 -18 -77 -34 -147 -37 -157 -4
-12 4 -18 35 -23 63 -11 153 -59 194 -104 l39 -43 -4 169 c-3 160 -4 171 -31
225 -15 31 -42 69 -58 83 -36 29 -84 33 -97 8z"/>
<path d="M9667 6060 c-4 -118 -10 -226 -13 -240 -5 -25 -4 -25 56 -25 56 0 61
2 56 20 -2 11 -21 103 -41 205 -20 102 -39 201 -44 220 -5 23 -10 -42 -14
-180z"/>
<path d="M9776 5936 c3 -21 12 -60 18 -87 l11 -48 30 37 31 37 -49 50 -48 50
7 -39z"/>
<path d="M9873 5832 c-18 -11 -43 -77 -43 -112 0 -17 12 -78 27 -137 l26 -106
14 54 c25 97 73 161 137 183 l36 12 -84 57 c-86 59 -93 62 -113 49z"/>
<path d="M9666 5757 c-12 -9 -20 -35 -26 -87 -5 -41 -12 -90 -15 -108 l-6 -32
33 20 c41 25 93 26 141 1 20 -10 37 -16 37 -12 0 3 -11 49 -25 101 -26 102
-46 130 -94 130 -15 0 -35 -6 -45 -13z"/>
<path d="M10019 5668 c-44 -30 -85 -113 -101 -205 -10 -63 -10 -78 7 -133 l19
-62 26 56 c46 96 123 180 205 224 17 9 58 23 93 32 l63 15 -104 48 c-118 53
-158 58 -208 25z"/>
<path d="M9675 5521 c-22 -10 -46 -29 -52 -42 -10 -18 -63 -262 -63 -288 0 -2
16 9 35 23 65 50 135 76 203 76 35 0 72 -5 83 -10 26 -14 25 -3 -7 93 -29 87
-62 133 -111 153 -40 17 -40 17 -88 -5z"/>
<path d="M9718 5245 c-53 -20 -123 -70 -153 -109 -14 -19 -45 -96 -70 -172
l-44 -139 36 45 c66 82 166 169 237 207 66 35 77 38 154 38 45 0 82 1 82 2 0
16 -44 94 -64 112 -32 30 -121 38 -178 16z"/>
<path d="M1922 10883 c2 -9 23 -27 47 -41 24 -13 71 -44 104 -68 61 -46 87
-54 87 -30 0 44 -149 156 -207 156 -27 0 -34 -4 -31 -17z"/>
<path d="M570 7496 c0 -4 157 -223 350 -489 l349 -482 1 -1206 0 -1206 1588
-918 c873 -506 1651 -956 1730 -1002 l142 -82 0 1202 0 1202 -383 483 -382
482 -1665 991 c-916 545 -1680 1000 -1697 1011 -18 11 -33 17 -33 14z"/>
<path d="M15633 5448 c-16 -18 -47 -59 -67 -90 -20 -31 -54 -72 -75 -91 l-38
-35 49 -5 c54 -7 148 -53 196 -97 36 -33 41 -68 14 -93 -28 -26 -60 -20 -105
18 -54 46 -128 82 -200 96 -50 10 -63 10 -97 -6 -22 -10 -37 -21 -35 -25 3 -4
25 -11 50 -14 60 -9 178 -69 209 -107 31 -36 33 -60 8 -82 -29 -27 -57 -20
-109 25 -105 91 -253 130 -350 93 l-48 -18 58 -13 c66 -16 126 -44 180 -86 29
-23 37 -37 37 -62 0 -71 -51 -75 -124 -9 -61 55 -132 90 -216 105 -57 10 -68
8 -188 -27 -294 -87 -333 -131 -329 -370 2 -141 8 -150 129 -210 147 -72 223
-88 413 -88 235 0 361 31 593 150 79 40 166 80 195 88 29 9 122 20 209 26 231
14 390 62 442 132 34 45 29 201 -11 392 -18 83 -37 199 -43 259 -11 110 -30
176 -49 176 -6 0 -11 -18 -11 -39 0 -33 -5 -43 -32 -62 -18 -12 -67 -55 -109
-95 -44 -43 -88 -75 -105 -79 -16 -4 -34 -8 -39 -10 -12 -3 -127 14 -133 20
-2 1 6 33 17 70 12 37 21 73 21 81 0 32 -174 114 -243 114 -24 0 -41 -9 -64
-32z"/>
<path d="M17565 5043 c-46 -10 -73 -26 -84 -49 -6 -15 -11 -73 -10 -137 1 -62
-2 -129 -6 -150 l-7 -37 28 11 c39 16 238 16 294 0 25 -7 71 -24 103 -38 61
-28 81 -59 56 -89 -16 -20 -47 -15 -159 25 -69 25 -101 31 -171 31 -47 0 -108
-7 -135 -15 -44 -13 -52 -20 -72 -60 -12 -26 -18 -44 -13 -40 21 13 198 22
270 14 55 -6 96 -18 149 -44 69 -34 72 -38 72 -71 0 -26 -5 -37 -24 -45 -19
-9 -32 -6 -74 15 -165 83 -430 70 -485 -24 l-17 -29 29 9 c56 16 176 21 241
11 37 -6 97 -27 140 -48 71 -36 75 -40 75 -72 0 -21 -6 -38 -17 -45 -19 -11
-18 -12 -138 41 -60 26 -74 28 -195 28 -177 0 -211 -12 -303 -110 -132 -138
-180 -237 -181 -371 -1 -124 8 -165 43 -198 43 -40 138 -83 227 -102 102 -22
342 -14 452 15 157 41 282 132 338 246 30 61 32 72 39 228 8 186 9 189 118
355 34 52 67 112 73 134 13 49 4 202 -17 298 -19 84 -72 248 -90 278 -19 29
-34 28 -34 -1 0 -13 -8 -31 -18 -40 -10 -9 -31 -44 -47 -77 -16 -33 -30 -58
-32 -57 -2 2 2 29 8 61 14 80 1 99 -88 120 -121 29 -277 43 -338 29z"/>
</g>
</svg>
