<svg xmlns="http://www.w3.org/2000/svg" xmlns:xlink="http://www.w3.org/1999/xlink" viewBox="0 0 5665.28 1800.97"><defs><style>.cls-1,.cls-14,.cls-2,.cls-31,.cls-33,.cls-34,.cls-35,.cls-40,.cls-7,.cls-8{fill:none;}.cls-2{clip-rule:evenodd;}.cls-3{isolation:isolate;}.cls-4{fill:#fff7c9;}.cls-5{clip-path:url(#clip-path);}.cls-6{opacity:0.43;}.cls-7{stroke:#fff;}.cls-14,.cls-40,.cls-7,.cls-8{stroke-miterlimit:10;}.cls-7,.cls-8{stroke-width:2.81px;}.cls-8{stroke:#d0c68f;}.cls-9{fill:#d4c579;}.cls-10,.cls-12,.cls-13,.cls-24,.cls-41{fill:#005f9c;}.cls-11,.cls-22{fill:#4bd3f2;}.cls-11,.cls-12,.cls-13,.cls-14,.cls-15,.cls-18,.cls-19,.cls-20,.cls-23,.cls-39,.cls-40{fill-rule:evenodd;}.cls-13,.cls-24{opacity:0.35;mix-blend-mode:multiply;}.cls-14{stroke:#00a0c9;stroke-width:16.12px;}.cls-14,.cls-31,.cls-33,.cls-34,.cls-35{stroke-linecap:round;}.cls-15,.cls-25{fill:#ffe5c0;}.cls-16,.cls-19{fill:#d95948;}.cls-17{clip-path:url(#clip-path-2);}.cls-18,.cls-27{fill:#ffb700;}.cls-20{fill:#ffc021;}.cls-21{clip-path:url(#clip-path-3);}.cls-23{fill:#ba8600;}.cls-26{fill:#bd1600;}.cls-28{font-size:12px;font-family:MyriadPro-Regular, Myriad Pro;}.cls-29{letter-spacing:-0.01em;}.cls-30{letter-spacing:-0.01em;}.cls-31,.cls-34{stroke:#ffe5c0;}.cls-31,.cls-33,.cls-34,.cls-35{stroke-linejoin:round;}.cls-31{stroke-width:10.09px;}.cls-32{fill:#d69a00;}.cls-33,.cls-35{stroke:#bdf3ff;}.cls-33{stroke-width:9.76px;}.cls-34{stroke-width:17.1px;}.cls-35{stroke-width:17.12px;}.cls-36{font-size:35.4px;font-family:Montserrat-Bold, Montserrat;font-weight:700;}.cls-36,.cls-39{fill:#005a9c;}.cls-37{letter-spacing:-0.03em;}.cls-38{letter-spacing:-0.01em;}.cls-40{stroke:#005a9c;stroke-width:1.96px;}.cls-41{font-size:144.32px;font-family:OpenSans-Extrabold, OpenSans Extrabold;font-weight:800;}.cls-42{letter-spacing:0em;}.cls-43{letter-spacing:0em;}</style><clipPath id="clip-path" transform="translate(1510.54 180.49)"><rect class="cls-1" width="2560" height="1440"/></clipPath><clipPath id="clip-path-2" transform="translate(1510.54 180.49)"><path class="cls-2" d="M2262.9,830.52c12.35,9,45.66-15.76,74.4-55.27s42-78.82,29.67-87.8-45.66,15.76-74.4,55.27S2250.55,821.54,2262.9,830.52Z"/></clipPath><clipPath id="clip-path-3" transform="translate(1510.54 180.49)"><path class="cls-2" d="M297.1,830.52c-12.35,9-45.66-15.76-74.4-55.27s-42-78.82-29.67-87.8,45.66,15.76,74.4,55.27S309.45,821.54,297.1,830.52Z"/></clipPath></defs><g class="cls-3"><g id="BACKGROUND"><rect class="cls-4" x="1510.54" y="180.49" width="2560" height="1440"/><g class="cls-5"><g class="cls-6"><line class="cls-7" x1="1653.75" y1="51.92" x2="2.7" y2="1702.97"/><line class="cls-8" x1="1652.04" y1="50.21" x2="0.99" y2="1701.26"/></g><g class="cls-6"><line class="cls-7" x1="1753.2" y1="51.92" x2="102.15" y2="1702.97"/><line class="cls-8" x1="1751.49" y1="50.21" x2="100.45" y2="1701.26"/></g><g class="cls-6"><line class="cls-7" x1="1852.65" y1="51.92" x2="201.61" y2="1702.97"/><line class="cls-8" x1="1850.95" y1="50.21" x2="199.9" y2="1701.26"/></g><g class="cls-6"><line class="cls-7" x1="1952.96" y1="51.92" x2="301.91" y2="1702.97"/><line class="cls-8" x1="1951.25" y1="50.21" x2="300.2" y2="1701.26"/></g><g class="cls-6"><line class="cls-7" x1="2053.27" y1="51.92" x2="402.22" y2="1702.97"/><line class="cls-8" x1="2051.56" y1="50.21" x2="400.51" y2="1701.26"/></g><g class="cls-6"><line class="cls-7" x1="2153.57" y1="51.92" x2="502.52" y2="1702.97"/><line class="cls-8" x1="2151.86" y1="50.21" x2="500.82" y2="1701.26"/></g><g class="cls-6"><line class="cls-7" x1="2253.88" y1="51.92" x2="602.83" y2="1702.97"/><line class="cls-8" x1="2252.17" y1="50.21" x2="601.12" y2="1701.26"/></g><g class="cls-6"><line class="cls-7" x1="2354.19" y1="51.92" x2="703.14" y2="1702.97"/><line class="cls-8" x1="2352.48" y1="50.21" x2="701.43" y2="1701.26"/></g><g class="cls-6"><line class="cls-7" x1="2454.49" y1="51.92" x2="803.44" y2="1702.97"/><line class="cls-8" x1="2452.78" y1="50.21" x2="801.73" y2="1701.26"/></g><g class="cls-6"><line class="cls-7" x1="2554.8" y1="51.92" x2="903.75" y2="1702.97"/><line class="cls-8" x1="2553.09" y1="50.21" x2="902.04" y2="1701.26"/></g><g class="cls-6"><line class="cls-7" x1="2655.1" y1="51.92" x2="1004.06" y2="1702.97"/><line class="cls-8" x1="2653.39" y1="50.21" x2="1002.35" y2="1701.26"/></g><g class="cls-6"><line class="cls-7" x1="2755.41" y1="51.92" x2="1104.36" y2="1702.97"/><line class="cls-8" x1="2753.7" y1="50.21" x2="1102.65" y2="1701.26"/></g><g class="cls-6"><line class="cls-7" x1="2855.72" y1="51.92" x2="1204.67" y2="1702.97"/><line class="cls-8" x1="2854.01" y1="50.21" x2="1202.96" y2="1701.26"/></g><g class="cls-6"><line class="cls-7" x1="2956.02" y1="51.92" x2="1304.97" y2="1702.97"/><line class="cls-8" x1="2954.31" y1="50.21" x2="1303.26" y2="1701.26"/></g><g class="cls-6"><line class="cls-7" x1="3056.33" y1="51.92" x2="1405.28" y2="1702.97"/><line class="cls-8" x1="3054.62" y1="50.21" x2="1403.57" y2="1701.26"/></g><g class="cls-6"><line class="cls-7" x1="3156.63" y1="51.92" x2="1505.59" y2="1702.97"/><line class="cls-8" x1="3154.93" y1="50.21" x2="1503.88" y2="1701.26"/></g><g class="cls-6"><line class="cls-7" x1="3256.94" y1="51.92" x2="1605.89" y2="1702.97"/><line class="cls-8" x1="3255.23" y1="50.21" x2="1604.18" y2="1701.26"/></g><g class="cls-6"><line class="cls-7" x1="3357.25" y1="51.92" x2="1706.2" y2="1702.97"/><line class="cls-8" x1="3355.54" y1="50.21" x2="1704.49" y2="1701.26"/></g><g class="cls-6"><line class="cls-7" x1="3457.55" y1="51.92" x2="1806.5" y2="1702.97"/><line class="cls-8" x1="3455.84" y1="50.21" x2="1804.8" y2="1701.26"/></g><g class="cls-6"><line class="cls-7" x1="3557.86" y1="51.92" x2="1906.81" y2="1702.97"/><line class="cls-8" x1="3556.15" y1="50.21" x2="1905.1" y2="1701.26"/></g><g class="cls-6"><line class="cls-7" x1="3658.17" y1="51.92" x2="2007.12" y2="1702.97"/><line class="cls-8" x1="3656.46" y1="50.21" x2="2005.41" y2="1701.26"/></g><g class="cls-6"><line class="cls-7" x1="3758.47" y1="51.92" x2="2107.42" y2="1702.97"/><line class="cls-8" x1="3756.76" y1="50.21" x2="2105.71" y2="1701.26"/></g><g class="cls-6"><line class="cls-7" x1="3858.78" y1="51.92" x2="2207.73" y2="1702.97"/><line class="cls-8" x1="3857.07" y1="50.21" x2="2206.02" y2="1701.26"/></g><g class="cls-6"><line class="cls-7" x1="3959.08" y1="51.92" x2="2308.04" y2="1702.97"/><line class="cls-8" x1="3957.38" y1="50.21" x2="2306.33" y2="1701.26"/></g><g class="cls-6"><line class="cls-7" x1="4059.39" y1="51.92" x2="2408.34" y2="1702.97"/><line class="cls-8" x1="4057.68" y1="50.21" x2="2406.63" y2="1701.26"/></g><g class="cls-6"><line class="cls-7" x1="4159.7" y1="51.92" x2="2508.65" y2="1702.97"/><line class="cls-8" x1="4157.99" y1="50.21" x2="2506.94" y2="1701.26"/></g><g class="cls-6"><line class="cls-7" x1="4260" y1="51.92" x2="2608.95" y2="1702.97"/><line class="cls-8" x1="4258.29" y1="50.21" x2="2607.25" y2="1701.26"/></g><g class="cls-6"><line class="cls-7" x1="4360.31" y1="51.92" x2="2709.26" y2="1702.97"/><line class="cls-8" x1="4358.6" y1="50.21" x2="2707.55" y2="1701.26"/></g><g class="cls-6"><line class="cls-7" x1="4460.62" y1="51.92" x2="2809.57" y2="1702.97"/><line class="cls-8" x1="4458.91" y1="50.21" x2="2807.86" y2="1701.26"/></g><g class="cls-6"><line class="cls-7" x1="4560.92" y1="51.92" x2="2909.87" y2="1702.97"/><line class="cls-8" x1="4559.21" y1="50.21" x2="2908.16" y2="1701.26"/></g><g class="cls-6"><line class="cls-7" x1="4661.23" y1="51.92" x2="3010.18" y2="1702.97"/><line class="cls-8" x1="4659.52" y1="50.21" x2="3008.47" y2="1701.26"/></g><g class="cls-6"><line class="cls-7" x1="4761.53" y1="51.92" x2="3110.49" y2="1702.97"/><line class="cls-8" x1="4759.82" y1="50.21" x2="3108.78" y2="1701.26"/></g><g class="cls-6"><line class="cls-7" x1="4861.84" y1="51.92" x2="3210.79" y2="1702.97"/><line class="cls-8" x1="4860.13" y1="50.21" x2="3209.08" y2="1701.26"/></g><g class="cls-6"><line class="cls-7" x1="4962.15" y1="51.92" x2="3311.1" y2="1702.97"/><line class="cls-8" x1="4960.44" y1="50.21" x2="3309.39" y2="1701.26"/></g><g class="cls-6"><line class="cls-7" x1="5062.45" y1="51.92" x2="3411.4" y2="1702.97"/><line class="cls-8" x1="5060.74" y1="50.21" x2="3409.7" y2="1701.26"/></g><g class="cls-6"><line class="cls-7" x1="5162.76" y1="51.92" x2="3511.71" y2="1702.97"/><line class="cls-8" x1="5161.05" y1="50.21" x2="3510" y2="1701.26"/></g><g class="cls-6"><line class="cls-7" x1="5263.06" y1="51.92" x2="3612.02" y2="1702.97"/><line class="cls-8" x1="5261.36" y1="50.21" x2="3610.31" y2="1701.26"/></g><g class="cls-6"><line class="cls-7" x1="5363.37" y1="51.92" x2="3712.32" y2="1702.97"/><line class="cls-8" x1="5361.66" y1="50.21" x2="3710.61" y2="1701.26"/></g><g class="cls-6"><line class="cls-7" x1="5463.68" y1="51.92" x2="3812.63" y2="1702.97"/><line class="cls-8" x1="5461.97" y1="50.21" x2="3810.92" y2="1701.26"/></g><g class="cls-6"><line class="cls-7" x1="5563.98" y1="51.92" x2="3912.93" y2="1702.97"/><line class="cls-8" x1="5562.27" y1="50.21" x2="3911.23" y2="1701.26"/></g><g class="cls-6"><line class="cls-7" x1="5664.29" y1="51.92" x2="4013.24" y2="1702.97"/><line class="cls-8" x1="5662.58" y1="50.21" x2="4011.53" y2="1701.26"/></g><g class="cls-6"><line class="cls-7" x1="4159.7" y1="51.92" x2="2508.65" y2="1702.97"/><line class="cls-8" x1="4157.99" y1="50.21" x2="2506.94" y2="1701.26"/></g></g></g><g id="OBJECTS"><polygon class="cls-9" points="2392.47 1620.49 1510.54 1594.51 1510.54 1276.85 2392.47 1620.49"/><polygon class="cls-10" points="2392.47 1620.49 1510.54 1620.49 1510.54 1302.83 2392.47 1620.49"/><polygon class="cls-9" points="3188.61 180.49 4070.54 206.47 4070.54 524.13 3188.61 180.49"/><polygon class="cls-10" points="3188.61 180.49 4070.54 180.49 4070.54 498.15 3188.61 180.49"/><path class="cls-11" d="M2447.35,888.31l34.38-49.91,12.13,7h0c.12.07.26.11.38.19,10.12,6.1,10.42,23.07.67,37.91-5.64,8.59-16.27,17.65-29.23,16.28C2457.18,898.91,2447.35,888.31,2447.35,888.31Z" transform="translate(1510.54 180.49)"/><path class="cls-12" d="M2400.11,933.44l-11.41-8.3a9.62,9.62,0,0,1-2.12-13.43l39.27-54.11a9.62,9.62,0,0,1,13.43-2.12l11.41,8.3a9.6,9.6,0,0,1,2.12,13.43l-39.27,54.11A9.6,9.6,0,0,1,2400.11,933.44Z" transform="translate(1510.54 180.49)"/><path class="cls-13" d="M2450.69,863.78l-11.41-8.3a9.6,9.6,0,0,0-6.16-1.82c-.24,15.51-7.67,33.35-16.46,45.42-7.57,10.4-17,29.64-29.91,24.16a9.51,9.51,0,0,0,1.95,1.9l11.41,8.3a9.6,9.6,0,0,0,13.43-2.12l39.27-54.11A9.6,9.6,0,0,0,2450.69,863.78Z" transform="translate(1510.54 180.49)"/><path class="cls-12" d="M2384,691.48s38.38,102.82,97.74,146.92c-7.47,37.62-34.38,49.91-34.38,49.91s-91.08-40.25-177.63-41.83Z" transform="translate(1510.54 180.49)"/><path class="cls-14" d="M2399.6,766.88c-1.59-2.38-4.52-7-4.52-7" transform="translate(1510.54 180.49)"/><path class="cls-14" d="M2425.24,801.35c-3.87-4.26-7.5-8.7-10.78-13" transform="translate(1510.54 180.49)"/><path class="cls-15" d="M2405.55,872.63c25.44,8.45,41.8,15.68,41.8,15.68s26.91-12.29,34.38-49.91c-11.37-8.45-22-19-31.67-30.67,0,0,5.43,13-12.47,39.24S2405.55,872.63,2405.55,872.63Z" transform="translate(1510.54 180.49)"/><path class="cls-13" d="M2320.9,777.06l-51.18,69.42c50,.91,101.42,14.7,136,26.21l.86.29,1.73.58,1,.33,1.53.52,1,.35,1.48.51,1,.34,1.58.55.77.27,2.24.8.53.19,1.67.6.82.3,1.33.48.84.31,1.22.45.83.31,1.22.45.71.27,1.46.55.39.15,1.75.66.6.23,1.1.43.64.25,1,.38.64.25.89.35.6.24.89.35.49.2,1.27.51.16.06,1.05.43.36.15.73.3.41.16.6.25.4.17.5.2.35.15.58.25.16.06.65.28.2.08.34.15.22.09.22.1.17.07.18.08.09,0,.23.1s10,11.79,21,11.64c11.91.18,22-9.38,26.61-16.42,4.8-7.31,7.16-15.13,7.11-21.91C2454.85,878.75,2320.82,813.28,2320.9,777.06Z" transform="translate(1510.54 180.49)"/><path class="cls-11" d="M2265.61,824.73c2.06-19.84,14.45-48.15,34.67-76,21.6-29.69,46.52-51.08,65.25-57.86l10.37-7.63,4.79,4c16.11,11.72,3.58,56.37-28,99.74s-70.18,69-86.28,57.33l-5.79-4.85Z" transform="translate(1510.54 180.49)"/><ellipse class="cls-16" cx="2316.4" cy="761.36" rx="90.92" ry="30.83" transform="translate(1848.62 2367.2) rotate(-53.97)"/><path class="cls-15" d="M2260.94,839.79c16.1,11.72,54.73-13.95,86.28-57.32s44.07-88,28-99.74-54.73,13.95-86.28,57.32S2244.84,828.08,2260.94,839.79Zm31.63-97.07c28.74-39.51,62-64.25,74.4-55.27s-.94,48.29-29.67,87.8-62.05,64.25-74.4,55.27S2263.84,782.23,2292.57,742.72Z" transform="translate(1510.54 180.49)"/><g class="cls-17"><polygon class="cls-18" points="3838.08 975.1 3814.87 949.27 3832.22 925.43 3867 940.79 3838.08 975.1"/><path class="cls-15" d="M2308.71,753.74c-4.79,6.58-6.75,13.32-4.37,15s8.18-2.21,13-8.79,6.74-13.32,4.37-15S2313.5,747.15,2308.71,753.74Z" transform="translate(1510.54 180.49)"/></g><path class="cls-11" d="M2286.52,648.28c-2.88-6.2-3.47-14.09,2.47-23.43l-15.65-6.53s-6,6.52-4.79,17.4C2274.8,644.44,2281.13,646.09,2286.52,648.28Z" transform="translate(1510.54 180.49)"/><path class="cls-19" d="M2300.79,652.5c-5.87-3.33-11.38-7.67-7.91-18.34,0,0-10.24,15.58-24.33,1.56C2268.55,635.72,2273.07,657.37,2300.79,652.5Z" transform="translate(1510.54 180.49)"/><path class="cls-11" d="M2210.32,792.36c3.24,6,4.29,13.86-1.1,23.53l16,5.61s5.64-6.87,3.75-17.66C2222.25,795.5,2215.83,794.23,2210.32,792.36Z" transform="translate(1510.54 180.49)"/><path class="cls-12" d="M2195.83,789c6.05,3,11.8,7,9,17.84,0,0,9.3-16.15,24.19-3C2229,803.84,2223.21,782.49,2195.83,789Z" transform="translate(1510.54 180.49)"/><path class="cls-11" d="M2265.25,746.12a6.86,6.86,0,1,1-6.1-7.55A6.86,6.86,0,0,1,2265.25,746.12Z" transform="translate(1510.54 180.49)"/><path class="cls-12" d="M2345.33,668.9a6.86,6.86,0,1,1-6.1-7.54A6.86,6.86,0,0,1,2345.33,668.9Z" transform="translate(1510.54 180.49)"/><path class="cls-20" d="M2249,679.59a6.86,6.86,0,1,1-6.11-7.55A6.86,6.86,0,0,1,2249,679.59Z" transform="translate(1510.54 180.49)"/><path class="cls-19" d="M2198.27,675.06c-8.94-8.08-18.05-5.54-18.05-5.54l-4.38,15.36c11.75-1.34,20.44,4.85,25.41,9.8C2201.07,688.19,2199.53,681.26,2198.27,675.06Z" transform="translate(1510.54 180.49)"/><path class="cls-10" d="M2197.27,674.12s20.45,18.72,7.05,34.25l-15.58-9.48S2202,687.85,2197.27,674.12Z" transform="translate(1510.54 180.49)"/><circle class="cls-16" cx="2439.24" cy="668.86" r="12.42" transform="translate(1862.84 2278.32) rotate(-49.73)"/><path class="cls-19" d="M2165.91,843.55a6.21,6.21,0,1,1-5.53-6.83A6.21,6.21,0,0,1,2165.91,843.55Z" transform="translate(1510.54 180.49)"/><path class="cls-12" d="M2219.51,873.31A15.14,15.14,0,1,1,2206,856.65,15.15,15.15,0,0,1,2219.51,873.31Z" transform="translate(1510.54 180.49)"/><path class="cls-19" d="M2380.24,589.39l-22.59,38.71a5.86,5.86,0,0,1-10.89-3.55l4.33-42.19a5.87,5.87,0,0,1,6.93-5.16l18.25,3.48A5.87,5.87,0,0,1,2380.24,589.39Z" transform="translate(1510.54 180.49)"/><path class="cls-18" d="M2140,733.9l41.77,16.22a5.86,5.86,0,0,1-1.79,11.31l-42.35,2.36a5.86,5.86,0,0,1-6.18-6l.57-18.57A5.86,5.86,0,0,1,2140,733.9Z" transform="translate(1510.54 180.49)"/><path class="cls-11" d="M112.65,888.31,78.27,838.4l-12.13,7h0c-.12.07-.26.11-.38.19-10.12,6.1-10.42,23.07-.67,37.91,5.64,8.59,16.27,17.65,29.23,16.28C102.82,898.91,112.65,888.31,112.65,888.31Z" transform="translate(1510.54 180.49)"/><path class="cls-12" d="M159.89,933.44l11.41-8.3a9.62,9.62,0,0,0,2.12-13.43L134.15,857.6a9.62,9.62,0,0,0-13.43-2.12l-11.41,8.3a9.6,9.6,0,0,0-2.12,13.43l39.27,54.11A9.6,9.6,0,0,0,159.89,933.44Z" transform="translate(1510.54 180.49)"/><path class="cls-13" d="M109.31,863.78l11.41-8.3a9.6,9.6,0,0,1,6.16-1.82c.24,15.51,7.67,33.35,16.46,45.42,7.57,10.4,17,29.64,29.91,24.16a9.51,9.51,0,0,1-1.95,1.9l-11.41,8.3a9.6,9.6,0,0,1-13.43-2.12l-39.27-54.11A9.6,9.6,0,0,1,109.31,863.78Z" transform="translate(1510.54 180.49)"/><path class="cls-12" d="M176,691.48S137.63,794.3,78.27,838.4c7.47,37.62,34.38,49.91,34.38,49.91s91.08-40.25,177.63-41.83Z" transform="translate(1510.54 180.49)"/><path class="cls-14" d="M160.4,766.88c1.59-2.38,4.52-7,4.52-7" transform="translate(1510.54 180.49)"/><path class="cls-14" d="M134.76,801.35c3.87-4.26,7.5-8.7,10.78-13" transform="translate(1510.54 180.49)"/><path class="cls-15" d="M154.45,872.63c-25.44,8.45-41.8,15.68-41.8,15.68S85.74,876,78.27,838.4c11.37-8.45,22-19,31.67-30.67,0,0-5.43,13,12.47,39.24S154.45,872.63,154.45,872.63Z" transform="translate(1510.54 180.49)"/><path class="cls-13" d="M239.1,777.06l51.18,69.42c-49.95.91-101.42,14.7-136,26.21l-.86.29-1.73.58-1,.33-1.53.52-1,.35-1.48.51-1,.34-1.58.55-.77.27-2.24.8-.53.19-1.67.6-.82.3-1.33.48-.84.31-1.22.45-.83.31-1.22.45-.71.27-1.46.55-.39.15-1.75.66-.6.23-1.1.43-.64.25-1,.38-.64.25-.89.35-.6.24-.89.35-.49.2-1.27.51-.16.06-1,.43-.36.15-.73.3-.41.16-.6.25-.4.17-.5.2-.35.15-.58.25-.16.06-.65.28-.2.08-.34.15-.22.09-.22.1-.17.07-.18.08-.09,0-.23.1s-10,11.79-21,11.64c-11.91.18-22-9.38-26.61-16.42-4.8-7.31-7.16-15.13-7.11-21.91C105.15,878.75,239.18,813.28,239.1,777.06Z" transform="translate(1510.54 180.49)"/><path class="cls-11" d="M294.39,824.73c-2.06-19.84-14.45-48.15-34.67-76-21.6-29.69-46.52-51.08-65.25-57.86l-10.37-7.63-4.79,4c-16.11,11.72-3.58,56.37,28,99.74s70.18,69,86.28,57.33l5.79-4.85Z" transform="translate(1510.54 180.49)"/><ellipse class="cls-16" cx="243.6" cy="761.36" rx="30.83" ry="90.92" transform="translate(1109.27 469.45) rotate(-36.03)"/><path class="cls-15" d="M271.09,740.05c-31.55-43.37-70.18-69-86.28-57.32s-3.58,56.36,28,99.74,70.18,69,86.28,57.32S302.64,783.43,271.09,740.05Zm26,90.47c-12.35,9-45.66-15.76-74.4-55.27s-42-78.82-29.67-87.8,45.66,15.76,74.4,55.27S309.45,821.54,297.1,830.52Z" transform="translate(1510.54 180.49)"/><g class="cls-21"><polygon class="cls-18" points="1742.99 975.1 1766.2 949.27 1748.85 925.43 1714.08 940.79 1742.99 975.1"/><path class="cls-15" d="M251.29,753.74c4.79,6.58,6.75,13.32,4.37,15s-8.18-2.21-13-8.79-6.74-13.32-4.37-15S246.5,747.15,251.29,753.74Z" transform="translate(1510.54 180.49)"/></g><path class="cls-11" d="M273.48,648.28c2.88-6.2,3.47-14.09-2.47-23.43l15.65-6.53s6,6.52,4.79,17.4C285.2,644.44,278.87,646.09,273.48,648.28Z" transform="translate(1510.54 180.49)"/><path class="cls-19" d="M259.21,652.5c5.87-3.33,11.38-7.67,7.91-18.34,0,0,10.24,15.58,24.33,1.56C291.45,635.72,286.93,657.37,259.21,652.5Z" transform="translate(1510.54 180.49)"/><path class="cls-11" d="M349.68,792.36c-3.24,6-4.29,13.86,1.1,23.53l-16,5.61s-5.64-6.87-3.75-17.66C337.75,795.5,344.17,794.23,349.68,792.36Z" transform="translate(1510.54 180.49)"/><path class="cls-12" d="M364.17,789c-6.05,3-11.8,7-9,17.84,0,0-9.3-16.15-24.19-3C331,803.84,336.79,782.49,364.17,789Z" transform="translate(1510.54 180.49)"/><path class="cls-11" d="M294.75,746.12a6.86,6.86,0,1,0,6.1-7.55A6.86,6.86,0,0,0,294.75,746.12Z" transform="translate(1510.54 180.49)"/><path class="cls-12" d="M214.67,668.9a6.86,6.86,0,1,0,6.1-7.54A6.86,6.86,0,0,0,214.67,668.9Z" transform="translate(1510.54 180.49)"/><path class="cls-20" d="M311,679.59a6.86,6.86,0,1,0,6.11-7.55A6.86,6.86,0,0,0,311,679.59Z" transform="translate(1510.54 180.49)"/><path class="cls-19" d="M361.73,675.06c8.94-8.08,18-5.54,18-5.54l4.38,15.36c-11.75-1.34-20.44,4.85-25.41,9.8C358.94,688.19,360.47,681.26,361.73,675.06Z" transform="translate(1510.54 180.49)"/><path class="cls-10" d="M362.73,674.12s-20.45,18.72-7.05,34.25l15.58-9.48S358,687.85,362.73,674.12Z" transform="translate(1510.54 180.49)"/><circle class="cls-16" cx="120.76" cy="668.86" r="12.42" transform="translate(1106.85 417.02) rotate(-40.27)"/><path class="cls-19" d="M394.09,843.55a6.21,6.21,0,1,0,5.53-6.83A6.21,6.21,0,0,0,394.09,843.55Z" transform="translate(1510.54 180.49)"/><path class="cls-12" d="M340.49,873.31A15.14,15.14,0,1,0,354,856.65,15.15,15.15,0,0,0,340.49,873.31Z" transform="translate(1510.54 180.49)"/><path class="cls-19" d="M179.76,589.39l22.59,38.71a5.86,5.86,0,0,0,10.89-3.55l-4.33-42.19A5.87,5.87,0,0,0,202,577.2l-18.25,3.48A5.87,5.87,0,0,0,179.76,589.39Z" transform="translate(1510.54 180.49)"/><path class="cls-18" d="M420,733.9l-41.77,16.22A5.86,5.86,0,0,0,380,761.43l42.35,2.36a5.86,5.86,0,0,0,6.18-6L428,739.19A5.86,5.86,0,0,0,420,733.9Z" transform="translate(1510.54 180.49)"/><path class="cls-19" d="M515.34,554.51l28.13,68.9a5.57,5.57,0,0,1-9,6.15l-51.17-48.38a5.57,5.57,0,0,1,.12-8.21l23.05-20.52A5.57,5.57,0,0,1,515.34,554.51Z" transform="translate(1510.54 180.49)"/><path class="cls-18" d="M442.34,624.76l67.88,30.49A5.58,5.58,0,0,1,508,665.91l-70.42.25a5.57,5.57,0,0,1-5.58-6l2.54-30.75A5.57,5.57,0,0,1,442.34,624.76Z" transform="translate(1510.54 180.49)"/><path class="cls-19" d="M2044.66,554.51l-28.13,68.9a5.57,5.57,0,0,0,9,6.15l51.17-48.38a5.57,5.57,0,0,0-.12-8.21l-23.05-20.52A5.57,5.57,0,0,0,2044.66,554.51Z" transform="translate(1510.54 180.49)"/><path class="cls-18" d="M2117.66,624.76l-67.88,30.49a5.58,5.58,0,0,0,2.26,10.66l70.42.25a5.57,5.57,0,0,0,5.58-6l-2.54-30.75A5.57,5.57,0,0,0,2117.66,624.76Z" transform="translate(1510.54 180.49)"/><polygon class="cls-9" points="3512.89 849.66 2806.45 839.94 2774.62 839.5 2068.18 829.78 2121.58 921.9 2068.18 1012.54 2774.62 1022.26 2806.45 1022.7 3512.89 1032.42 3459.49 940.31 3512.89 849.66"/><polygon class="cls-22" points="3512.89 829.78 2806.45 829.78 2774.62 829.78 2068.18 829.78 2121.58 921.16 2068.18 1012.54 2774.62 1012.54 2806.45 1012.54 3512.89 1012.54 3459.49 921.16 3512.89 829.78"/><g class="cls-5"><path class="cls-18" d="M405.69,1151.68,40.1,1517.26l35.9,35.9,365.58-365.59a25.38,25.38,0,0,0,0-35.89h0A25.38,25.38,0,0,0,405.69,1151.68Z" transform="translate(1510.54 180.49)"/><path class="cls-11" d="M191.45,1228l-374.56,374.56,18,18L209.4,1245.93a12.7,12.7,0,0,0,0-18h0A12.7,12.7,0,0,0,191.45,1228Z" transform="translate(1510.54 180.49)"/><path class="cls-18" d="M2154.31,288.32,2519.9-77.26l-35.9-35.9L2118.42,252.43a25.38,25.38,0,0,0,0,35.89h0A25.38,25.38,0,0,0,2154.31,288.32Z" transform="translate(1510.54 180.49)"/><path class="cls-11" d="M2368.55,212l374.56-374.56-18-18L2350.6,194.07a12.7,12.7,0,0,0,0,18h0A12.7,12.7,0,0,0,2368.55,212Z" transform="translate(1510.54 180.49)"/><path class="cls-23" d="M1901.59,1352.67l-1.83.07c0-.29-4.76-29.22-6.62-63.14-2.51-45.63,1-78.06,10.58-96.4l.46-.88,11.53,7.1Z" transform="translate(1510.54 180.49)"/><path class="cls-23" d="M1897.28,1211.27c-4.57,18.88-6,45.11-4.14,78.33,1.86,33.92,6.57,62.85,6.62,63.14l1.83-.07,11.8-128.14Z" transform="translate(1510.54 180.49)"/><polygon class="cls-23" points="3415.08 1374.12 3429 1316.71 3435.23 1347.43 3425.09 1382.3 3415.08 1374.12"/><path class="cls-22" d="M1930.22,1172.57c17.47,2.45,34.86-18.55,38.86-46.93s-6.93-53.36-24.4-55.82-26.7,19.23-30.69,47.6S1912.76,1170.11,1930.22,1172.57Zm-3.17-53.35c1.38-9.82,3.47-18.09,6-23.92,1.44-3.25,4.4-8.78,8.07-9.24a6.26,6.26,0,0,1,1.61,0c5.24.74,8.55,6.65,10.06,10.1,3.3,7.54,4.33,17.3,2.9,27.48-1.29,9.1-4.46,17.54-8.94,23.76-3.68,5.1-8,8.31-11.81,8.79a8,8,0,0,1-2.08,0c-1.14-.16-4.16-.58-6-8.17C1925.31,1141.23,1925.35,1131.27,1927.05,1119.22Z" transform="translate(1510.54 180.49)"/><path class="cls-24" d="M1928.66,1099.35c-2.58,5.83-4.67,14.1-6.05,23.92-1.7,12-1.74,22-.11,28.81,1.81,7.59,4.83,8,6,8.18a8,8,0,0,0,2.08,0c3.17-.4,6.66-2.66,9.86-6.33a12.53,12.53,0,0,1-5.42,2.28,8,8,0,0,1-2.08,0c-1.14-.16-4.16-.58-6-8.17-1.62-6.8-1.58-16.76.12-28.81,1.38-9.82,3.47-18.09,6-23.92a31.94,31.94,0,0,1,2.68-4.94C1932.55,1091.54,1930,1096.38,1928.66,1099.35Z" transform="translate(1510.54 180.49)"/><path class="cls-24" d="M1940.24,1073.87c17.47,2.46,28.39,27.45,24.4,55.83-2.19,15.51-8.38,28.81-16.4,37.28,10.13-7.86,18.26-23.06,20.84-41.34,4-28.37-6.93-53.36-24.4-55.82-6.7-.94-12.19,1.68-16.64,6.86A16.79,16.79,0,0,1,1940.24,1073.87Z" transform="translate(1510.54 180.49)"/><path class="cls-24" d="M1914,1117.42c-.46,3.26-.83,6.47-1.09,9.6a67.89,67.89,0,0,1,13.53-2.78c.17-1.63.37-3.3.62-5,1.38-9.82,3.47-18.09,6-23.92,1.44-3.26,4.4-8.78,8.07-9.24a6.26,6.26,0,0,1,1.61,0c5.24.74,8.55,6.65,10.06,10.1,3.3,7.54,4.33,17.3,2.9,27.48-.12.82-.26,1.64-.4,2.45a90.89,90.89,0,0,1,13,3.66c.26-1.36.5-2.74.7-4.14,4-28.37-6.93-53.36-24.4-55.82S1918,1089.05,1914,1117.42Z" transform="translate(1510.54 180.49)"/><path class="cls-25" d="M1900.71,1217.8a5.22,5.22,0,1,1,5.83,4.53A5.21,5.21,0,0,1,1900.71,1217.8Z" transform="translate(1510.54 180.49)"/><path class="cls-26" d="M2176.6,1320.84c-11.68-3.29-97.79-22.11-108.73-25.38-51.28-15.35-95.9-28.71-145.71-22.16-56.87,7.48-120.5,40.9-208.47,126.91a257.57,257.57,0,0,1-102.2,61.65h113.12a312.51,312.51,0,0,0,27.46-23.91c67.23-65.73,120.32-100.66,167.08-109.93,42.46-8.41,165.65,28.46,184.15,33.33l.48.13c17.64,4.64,66.34-9.39,55.22-23.57C2153.27,1330.61,2178.09,1322.5,2176.6,1320.84Z" transform="translate(1510.54 180.49)"/><path class="cls-16" d="M2191.54,1348.86c106.9-41.66,222.55-225.75,397.19-154.46l21.75-63.29s-105.58-54.67-253.86,37c-29.29,18.13-89.55,63.42-109.61,82.18-52,48.64-104.78,90.51-140.92,111.62C2134.88,1364.86,2161.22,1360.68,2191.54,1348.86Z" transform="translate(1510.54 180.49)"/><path class="cls-18" d="M1968.15,1273c17.09,23.76,29.11,44.07,29.23,44.27l-1.45,1.13-109.09-108.57,4.3-12.83.91.38c25.66,10.71,55.54,47,76.1,75.61Z" transform="translate(1510.54 180.49)"/><path class="cls-15" d="M1934.93,1257.71l4.41,4.39c6.56-.52,13.12-1,19.68-1.42-1.43-1.88-2.89-3.78-4.37-5.67Q1944.79,1256.38,1934.93,1257.71Z" transform="translate(1510.54 180.49)"/><path class="cls-15" d="M1947.94,1246.66c-2.51-3.06-5.08-6.11-7.7-9.1-2.89.6-5.77,1.19-8.66,1.77-4.18.83-8.38,1.65-12.58,2.52l7.63,7.6C1933.7,1248.21,1940.84,1247.28,1947.94,1246.66Z" transform="translate(1510.54 180.49)"/><polygon class="cls-18" points="3400.44 1392.99 3368.96 1371.82 3353.93 1344.05 3355.29 1342.87 3403.25 1378.35 3400.44 1392.99"/><path class="cls-22" d="M1835.59,1145.83c-21.26-19.22-42.24-29.94-54.07-16.85s-4.19,39.26,17.07,58.48,48.07,24.18,59.9,11.09S1856.84,1165,1835.59,1145.83Zm9.69,31.78c3.47,7,1.43,9.26.65,10.11a8,8,0,0,1-1.59,1.35c-3.24,2.08-8.6,2.38-14.69.82-7.43-1.9-15.27-6.34-22.09-12.51-7.63-6.89-13.09-15-15.4-22.94-1.06-3.61-2.3-10.27,1.25-14.2a6.06,6.06,0,0,1,1.21-1c3.11-2,8.93.34,12.12,1.91,5.71,2.82,12.62,7.83,20,14.48C1835.75,1163.74,1842.17,1171.36,1845.28,1177.61Z" transform="translate(1510.54 180.49)"/><path class="cls-24" d="M1847.58,1184.17c-.12-.24-.26-.49-.39-.74a4.93,4.93,0,0,1-1.26,4.29,8,8,0,0,1-1.59,1.35c-3.24,2.08-8.6,2.38-14.69.82-7.43-1.9-15.27-6.34-22.09-12.51a55.81,55.81,0,0,1-13.49-17.84c.13.52.26,1,.39,1.46,2.31,7.9,7.78,16,15.4,22.94,6.82,6.16,14.66,10.61,22.09,12.51,6.1,1.56,11.45,1.26,14.7-.83a7.9,7.9,0,0,0,1.59-1.34C1849,1193.42,1851.06,1191.16,1847.58,1184.17Z" transform="translate(1510.54 180.49)"/><path class="cls-24" d="M1779.76,1161.81c-2.85-10.33-1.73-19.87,4.06-26.28,11.83-13.08,32.82-2.36,54.07,16.85,11.07,10,20,20.35,24.4,29.81-2.55-11.1-13-24-26.7-36.36-21.26-19.22-42.24-29.94-54.07-16.85C1774.52,1136.72,1774.34,1149.05,1779.76,1161.81Z" transform="translate(1510.54 180.49)"/><path class="cls-24" d="M1783.21,1168.68a38.91,38.91,0,0,1,2.64-4,34.63,34.63,0,0,1,7.33-7.24q-.59-1.5-1-3c-1.06-3.61-2.3-10.27,1.25-14.2a6.06,6.06,0,0,1,1.21-1c3.11-2,8.93.34,12.12,1.91a78.11,78.11,0,0,1,13.37,8.84,83.27,83.27,0,0,1,22,3.53l2.07.64c-2.67-2.77-5.55-5.54-8.58-8.28-21.26-19.22-42.24-29.94-54.07-16.85C1773.26,1138.11,1774.49,1153.61,1783.21,1168.68Z" transform="translate(1510.54 180.49)"/><path class="cls-25" d="M1910.14,1214.35a5.22,5.22,0,1,0-1.57,7.21A5.24,5.24,0,0,0,1910.14,1214.35Z" transform="translate(1510.54 180.49)"/><path class="cls-23" d="M613.85,99l1.83-.07c0,.29,4.76,29.22,6.62,63.13,2.51,45.63-1,78.07-10.59,96.4l-.45.89-11.53-7.1Z" transform="translate(1510.54 180.49)"/><path class="cls-23" d="M618.16,240.37c4.57-18.88,6-45.11,4.14-78.34-1.86-33.91-6.58-62.84-6.62-63.13l-1.83.07L602,227.11Q610.11,233.73,618.16,240.37Z" transform="translate(1510.54 180.49)"/><polygon class="cls-23" points="2121.43 438.5 2107.51 495.9 2101.28 465.18 2111.42 430.31 2121.43 438.5"/><path class="cls-22" d="M585.22,279.07c-17.47-2.46-34.86,18.55-38.86,46.92s6.93,53.37,24.4,55.83,26.69-19.23,30.69-47.6S602.68,281.53,585.22,279.07Zm3.17,53.35c-1.38,9.82-3.47,18.09-6,23.92-1.44,3.25-4.4,8.78-8.08,9.24a6.19,6.19,0,0,1-1.6,0c-5.24-.74-8.56-6.65-10.07-10.1-3.29-7.55-4.32-17.3-2.89-27.48,1.28-9.1,4.46-17.54,8.94-23.76,3.68-5.11,8-8.31,11.81-8.79a8,8,0,0,1,2.08,0c1.14.16,4.16.59,6,8.18C590.13,310.4,590.09,320.37,588.39,332.42Z" transform="translate(1510.54 180.49)"/><path class="cls-24" d="M586.78,352.29c2.58-5.83,4.67-14.1,6.05-23.92,1.7-12.05,1.74-22,.11-28.81-1.81-7.59-4.83-8-6-8.18a8.12,8.12,0,0,0-2.09,0c-3.16.4-6.65,2.66-9.85,6.32a12.63,12.63,0,0,1,5.42-2.27,8,8,0,0,1,2.08,0c1.14.16,4.16.59,6,8.18,1.63,6.79,1.59,16.76-.11,28.81-1.38,9.82-3.47,18.09-6,23.92a31.94,31.94,0,0,1-2.68,4.94C582.89,360.1,585.47,355.25,586.78,352.29Z" transform="translate(1510.54 180.49)"/><path class="cls-24" d="M575.2,377.76c-17.47-2.45-28.39-27.45-24.4-55.82,2.18-15.51,8.38-28.81,16.39-37.29-10.12,7.87-18.26,23.07-20.83,41.34-4,28.38,6.93,53.37,24.4,55.83,6.7.94,12.19-1.68,16.64-6.86A16.74,16.74,0,0,1,575.2,377.76Z" transform="translate(1510.54 180.49)"/><path class="cls-24" d="M601.45,334.22c.46-3.26.82-6.47,1.09-9.6A67.89,67.89,0,0,1,589,327.4c-.17,1.63-.38,3.3-.62,5-1.38,9.82-3.47,18.09-6,23.92-1.44,3.25-4.4,8.78-8.08,9.24a6.19,6.19,0,0,1-1.6,0c-5.24-.74-8.56-6.65-10.07-10.1-3.29-7.55-4.32-17.3-2.89-27.48.12-.82.26-1.64.4-2.45a90.89,90.89,0,0,1-13-3.66c-.26,1.36-.5,2.73-.7,4.13-4,28.38,6.93,53.37,24.4,55.83S597.45,362.59,601.45,334.22Z" transform="translate(1510.54 180.49)"/><path class="cls-25" d="M614.72,233.84a5.22,5.22,0,1,1-5.82-4.53A5.2,5.2,0,0,1,614.72,233.84Z" transform="translate(1510.54 180.49)"/><path class="cls-26" d="M791.79-11a314.42,314.42,0,0,0-28.42,24.64C696.14,79.42,643.05,114.35,596.29,123.61,553.83,132,430.64,95.16,412.13,90.29l-.47-.13c-17.64-4.64-66.34,9.39-55.22,23.57,5.73,7.29-19.09,15.4-17.6,17.07,11.68,3.29,97.79,22.11,108.73,25.38,51.28,15.35,95.9,28.71,145.71,22.15,56.86-7.47,120.49-40.89,208.46-126.9A257.68,257.68,0,0,1,906.28-11Z" transform="translate(1510.54 180.49)"/><path class="cls-16" d="M323.9,102.77C217,144.44,101.35,328.53-73.29,257.24L-95,320.52s105.58,54.68,253.85-37c29.3-18.12,89.56-63.42,109.62-82.17,52-48.65,104.77-90.52,140.92-111.62C380.56,86.78,354.22,91,323.9,102.77Z" transform="translate(1510.54 180.49)"/><path class="cls-18" d="M547.29,178.62c-17.09-23.76-29.11-44.07-29.23-44.28l1.45-1.12L628.6,241.78l-4.3,12.84-.92-.38c-25.65-10.71-55.53-47-76.09-75.61Z" transform="translate(1510.54 180.49)"/><path class="cls-15" d="M580.51,193.93l-4.41-4.39c-6.56.52-13.12,1-19.69,1.42q2.16,2.82,4.38,5.67Q570.65,195.25,580.51,193.93Z" transform="translate(1510.54 180.49)"/><path class="cls-15" d="M567.49,205c2.52,3.06,5.09,6.11,7.71,9.1,2.88-.61,5.77-1.2,8.65-1.77,4.19-.83,8.39-1.65,12.59-2.53l-7.63-7.59C581.74,203.43,574.6,204.36,567.49,205Z" transform="translate(1510.54 180.49)"/><polygon class="cls-18" points="2136.07 419.62 2167.55 440.79 2182.58 468.56 2181.22 469.74 2133.26 434.27 2136.07 419.62"/><path class="cls-22" d="M679.85,305.81c21.26,19.21,42.24,29.94,54.07,16.85s4.19-39.26-17.07-58.48S668.78,240,657,253.08,658.6,286.6,679.85,305.81ZM670.16,274c-3.47-7-1.43-9.25-.66-10.1a8.06,8.06,0,0,1,1.6-1.35c3.24-2.08,8.59-2.38,14.69-.82,7.43,1.9,15.27,6.34,22.09,12.5,7.62,6.89,13.09,15,15.4,22.94,1.06,3.62,2.3,10.28-1.25,14.21a6.06,6.06,0,0,1-1.21,1.05c-3.11,2-8.93-.34-12.12-1.91-5.72-2.82-12.63-7.83-20-14.48C679.69,287.9,673.27,280.28,670.16,274Z" transform="translate(1510.54 180.49)"/><path class="cls-24" d="M667.86,267.47l.38.74a5,5,0,0,1,1.26-4.29,8.06,8.06,0,0,1,1.6-1.35c3.24-2.08,8.59-2.38,14.69-.82,7.43,1.9,15.27,6.34,22.09,12.5a56,56,0,0,1,13.49,17.85c-.13-.53-.26-1-.39-1.46-2.31-7.9-7.78-16.05-15.4-22.94-6.82-6.17-14.67-10.61-22.09-12.51-6.1-1.56-11.46-1.26-14.7.83a7.9,7.9,0,0,0-1.59,1.34C666.43,258.21,664.38,260.48,667.86,267.47Z" transform="translate(1510.54 180.49)"/><path class="cls-24" d="M735.68,289.83c2.85,10.33,1.73,19.87-4.06,26.28-11.83,13.08-32.82,2.36-54.07-16.86-11.07-10-20-20.34-24.4-29.8,2.55,11.1,13,24,26.7,36.36,21.26,19.21,42.24,29.94,54.07,16.85C740.92,314.92,741.1,302.59,735.68,289.83Z" transform="translate(1510.54 180.49)"/><path class="cls-24" d="M732.23,283a43.14,43.14,0,0,1-2.64,4,34.63,34.63,0,0,1-7.33,7.24c.39,1,.73,2,1,3,1.06,3.62,2.3,10.28-1.25,14.21a6.06,6.06,0,0,1-1.21,1.05c-3.11,2-8.93-.34-12.12-1.91a77.64,77.64,0,0,1-13.37-8.85,82.86,82.86,0,0,1-22-3.52l-2.07-.64c2.67,2.77,5.54,5.54,8.58,8.28,21.26,19.21,42.24,29.94,54.07,16.85C742.17,313.53,740.94,298,732.23,283Z" transform="translate(1510.54 180.49)"/><path class="cls-25" d="M605.3,237.29a5.22,5.22,0,1,0,1.57-7.21A5.22,5.22,0,0,0,605.3,237.29Z" transform="translate(1510.54 180.49)"/></g><path class="cls-11" d="M217.2,431.92c-7.16,10.5-10.64,24.8-2.57,43.73l-30.7,7.24s-9.09-13.81-3.5-33.39C194.53,435.41,206.65,434.31,217.2,431.92Z" transform="translate(1510.54 180.49)"/><path class="cls-18" d="M244.43,429c-11.78,4.32-23.19,10.61-20.08,31.23,0,0-14-31.67-44.15-10.26C180.2,450,195.07,411.64,244.43,429Z" transform="translate(1510.54 180.49)"/><path class="cls-11" d="M683.85,520.7a12.76,12.76,0,1,0,12.76-12.76A12.76,12.76,0,0,0,683.85,520.7Z" transform="translate(1510.54 180.49)"/><path class="cls-18" d="M307.7,519.65a12.76,12.76,0,1,0,12.76-12.76A12.75,12.75,0,0,0,307.7,519.65Z" transform="translate(1510.54 180.49)"/><path class="cls-20" d="M1710.48,444.9a12.76,12.76,0,1,0,12.76-12.76A12.76,12.76,0,0,0,1710.48,444.9Z" transform="translate(1510.54 180.49)"/><path class="cls-20" d="M1118.74,1319a12.76,12.76,0,1,0,12.76-12.76A12.75,12.75,0,0,0,1118.74,1319Z" transform="translate(1510.54 180.49)"/><path class="cls-19" d="M2009.92,455.48c11.45,19.26,3.46,34.92,3.46,34.92l-29.6,2.34c6.76-20.92-1.33-39-8.53-49.91C1987,445.56,1999.08,450.9,2009.92,455.48Z" transform="translate(1510.54 180.49)"/><path class="cls-27" d="M2011.27,457.65s-26.6-44.15-59.83-25.45L1963,464.09S1988,444,2011.27,457.65Z" transform="translate(1510.54 180.49)"/><path class="cls-11" d="M2302.27,451.52l47.39-64.39a3.3,3.3,0,0,1,5.53.3l19.47,33.5a3.31,3.31,0,0,1-1.48,4.67l-66.85,30.9A3.32,3.32,0,0,1,2302.27,451.52Z" transform="translate(1510.54 180.49)"/><path class="cls-11" d="M434,340.31,365.8,298.62a3.31,3.31,0,0,1-.18-5.54l31.71-22.27a3.33,3.33,0,0,1,4.79,1.07l36.51,64A3.31,3.31,0,0,1,434,340.31Z" transform="translate(1510.54 180.49)"/><path class="cls-11" d="M1434.53,1307.63c-7.16,10.5-10.64,24.8-2.58,43.73l-30.7,7.23s-9.08-13.8-3.49-33.38C1411.86,1311.12,1424,1310,1434.53,1307.63Z" transform="translate(1510.54 180.49)"/><path class="cls-18" d="M1461.76,1304.71c-11.78,4.32-23.2,10.61-20.09,31.23,0,0-14-31.68-44.14-10.26C1397.53,1325.68,1412.4,1287.35,1461.76,1304.71Z" transform="translate(1510.54 180.49)"/><path class="cls-11" d="M1748.87,1234a12.76,12.76,0,1,0,12.76-12.76A12.76,12.76,0,0,0,1748.87,1234Z" transform="translate(1510.54 180.49)"/><path class="cls-18" d="M1461.76,939.38a12.76,12.76,0,1,0,12.75-12.76A12.75,12.75,0,0,0,1461.76,939.38Z" transform="translate(1510.54 180.49)"/><path class="cls-20" d="M2168.2,1160.19a12.76,12.76,0,1,0,12.75-12.76A12.75,12.75,0,0,0,2168.2,1160.19Z" transform="translate(1510.54 180.49)"/><path class="cls-19" d="M1617,1168.26c11.44,19.26,3.45,34.92,3.45,34.92l-29.59,2.35c6.76-20.93-1.33-39-8.53-49.92C1594.05,1158.34,1606.11,1163.69,1617,1168.26Z" transform="translate(1510.54 180.49)"/><path class="cls-27" d="M1618.31,1170.44s-26.6-44.15-59.83-25.45l11.55,31.88S1595,1156.81,1618.31,1170.44Z" transform="translate(1510.54 180.49)"/><path class="cls-11" d="M539.07,952.81l-61.28,51.35a3.3,3.3,0,0,1-5.3-1.6l-11-37.15a3.31,3.31,0,0,1,2.54-4.19L536.31,947A3.32,3.32,0,0,1,539.07,952.81Z" transform="translate(1510.54 180.49)"/><path class="cls-11" d="M2050.62,943.36l60,52.82a3.32,3.32,0,0,1-.78,5.49l-35.07,16.47a3.32,3.32,0,0,1-4.53-1.88l-25-69.29A3.31,3.31,0,0,1,2050.62,943.36Z" transform="translate(1510.54 180.49)"/><path class="cls-11" d="M982.58,401.48a9.21,9.21,0,1,0,9.21-9.2A9.21,9.21,0,0,0,982.58,401.48Z" transform="translate(1510.54 180.49)"/><path class="cls-19" d="M1008,183.57c13.06-9.53,24.85-4.84,24.85-4.84l3.68,21.1c-15.49-3.44-27.95,3.59-35.28,9.5C1002.45,200.69,1005.48,191.66,1008,183.57Z" transform="translate(1510.54 180.49)"/><path class="cls-10" d="M1009.51,182.45s-29.92,22.09-14.25,44.7l22.13-10.45S1001.29,200.11,1009.51,182.45Z" transform="translate(1510.54 180.49)"/><path class="cls-12" d="M833.2,159.07a11.55,11.55,0,1,0,11.54-11.54A11.55,11.55,0,0,0,833.2,159.07Z" transform="translate(1510.54 180.49)"/><path class="cls-11" d="M820.41,437.86c5.88-11.58,7.53-26.53-3.13-44.66l30.17-11.36s11,12.8,7.92,33.38C842.93,431.35,830.79,434.06,820.41,437.86Z" transform="translate(1510.54 180.49)"/><path class="cls-12" d="M793,444.9c11.37-5.92,22.11-13.79,16.26-34.28,0,0,18.38,30.26,46.08,4.6C855.37,415.22,845.33,456,793,444.9Z" transform="translate(1510.54 180.49)"/><path class="cls-11" d="M1608.42,236.48a13.57,13.57,0,1,1-13.57-13.57A13.57,13.57,0,0,1,1608.42,236.48Z" transform="translate(1510.54 180.49)"/><text class="cls-28" transform="translate(3225.69 483.19)"><tspan class="cls-29">L</tspan><tspan x="5.5" y="0">o</tspan><tspan class="cls-30" x="12.08" y="0">r</tspan><tspan x="15.89" y="0">em </tspan><tspan x="33.98" y="14.4">ip</tspan></text><path class="cls-10" d="M1752,287s44.11,32.56,21,65.89l-32.62-15.4S1764.1,313,1752,287Z" transform="translate(1510.54 180.49)"/><circle class="cls-10" cx="1891.89" cy="204.8" r="17.93" transform="translate(2768.44 2179.52) rotate(-76.72)"/><path class="cls-11" d="M1522.11,378.51c2.78-13.23,11.19-26.43,31.67-34.18l-17.06-28.89s-17.29,3.19-28.2,21.9C1508.09,358.54,1516.17,368.65,1522.11,378.51Z" transform="translate(1510.54 180.49)"/><path class="cls-12" d="M1539.72,402.08c-5.36-12.22-8.94-25.61,9.18-38.41,0,0-34.65,12.55-40.38-26.33C1508.52,337.34,1490.05,377,1539.72,402.08Z" transform="translate(1510.54 180.49)"/><path class="cls-11" d="M812.14,1129.22a13.57,13.57,0,1,1-13.57-13.57A13.58,13.58,0,0,1,812.14,1129.22Z" transform="translate(1510.54 180.49)"/><path class="cls-19" d="M890.2,1248.86c-19.26-14-36.64-7.13-36.64-7.13l-5.43,31.11c22.84-5.07,41.21,5.29,52,14C898.43,1274.11,894,1260.8,890.2,1248.86Z" transform="translate(1510.54 180.49)"/><path class="cls-10" d="M888,1247.22s44.11,32.56,21,65.9l-32.62-15.41S900.15,1273.25,888,1247.22Z" transform="translate(1510.54 180.49)"/><path class="cls-12" d="M1084.72,926.62a17.93,17.93,0,1,1-17.93-17.92A17.93,17.93,0,0,1,1084.72,926.62Z" transform="translate(1510.54 180.49)"/><path class="cls-11" d="M586.12,1200.32c2.79-13.23,11.2-26.43,31.67-34.18l-17-28.9s-17.29,3.2-28.21,21.91C572.1,1180.35,580.19,1190.46,586.12,1200.32Z" transform="translate(1510.54 180.49)"/><path class="cls-12" d="M603.74,1223.89c-5.36-12.22-8.94-25.61,9.18-38.41,0,0-34.66,12.55-40.39-26.33C572.53,1159.15,554.06,1198.79,603.74,1223.89Z" transform="translate(1510.54 180.49)"/><path class="cls-11" d="M1351.13,140.61c-3.05-8.06-3.07-18,5.26-29.23l-19.09-9.65s-8.18,7.65-7.61,21.45C1336.74,134.7,1344.55,137.35,1351.13,140.61Z" transform="translate(1510.54 180.49)"/><path class="cls-19" d="M1368.68,147.21c-7.07-4.72-13.6-10.68-8.27-23.77,0,0-14.29,18.64-30.72-.26C1329.69,123.18,1333.39,150.8,1368.68,147.21Z" transform="translate(1510.54 180.49)"/><path class="cls-27" d="M1575.56,605.21l-2.91-1L1562.36,613c-.3,1.33,2.81,3.58,6.94,5.06s8,1.74,8.57.52Z" transform="translate(1510.54 180.49)"/><path class="cls-27" d="M1639.43,554.54c5.61-29.75-9-47.69-27.77-55.14-19.25-6.22-41.92-1.68-56.53,24.83-16.54,30,.1,74.86,18.31,81.48S1633.08,588.22,1639.43,554.54Z" transform="translate(1510.54 180.49)"/><path class="cls-31" d="M1564,529.1a49.16,49.16,0,0,1,10.76-13.71" transform="translate(1510.54 180.49)"/><path class="cls-31" d="M1588.66,508.08a34.13,34.13,0,0,1,4.28-.76" transform="translate(1510.54 180.49)"/><path class="cls-32" d="M1639.43,554.54c2.55-13.52.92-24.58-3.36-33.35,5.63,44.15-65.65,97.23-87,41.76,2.62,19.39,12.21,36.82,22.67,42l-9.36,8c-.3,1.33,2.81,3.58,6.94,5.06s8,1.74,8.57.52l-2.12-12.23C1595,610.25,1633.33,586.87,1639.43,554.54Z" transform="translate(1510.54 180.49)"/><path class="cls-22" d="M994.54,595.92l-2.65,1.38-.49,13.1c.75,1.09,4.38.35,8.15-1.61s6.46-4.51,6-5.74Z" transform="translate(1510.54 180.49)"/><path class="cls-22" d="M1000.49,517.31c-17.44-23.51-39.74-24.93-57.38-16.47-17.05,9.58-28.7,28.65-19.47,56.43,10.45,31.45,53.21,49.06,69.86,40.48S1020.23,543.93,1000.49,517.31Z" transform="translate(1510.54 180.49)"/><path class="cls-33" d="M932.9,554.19a47.64,47.64,0,0,1-2.68-16.64" transform="translate(1510.54 180.49)"/><path class="cls-33" d="M934.18,522.86a32.38,32.38,0,0,1,2.27-3.53" transform="translate(1510.54 180.49)"/><path class="cls-24" d="M1000.49,517.31c-7.92-10.68-16.85-16.79-25.89-19.5,35,25,25.95,110.43-27.46,89.2,15.48,10.86,34.15,15.49,44.71,11.48l-.45,11.91c.75,1.09,4.38.35,8.15-1.61s6.46-4.51,6-5.74l-10.07-6.52C1010.86,585.45,1019.44,542.86,1000.49,517.31Z" transform="translate(1510.54 180.49)"/><path class="cls-27" d="M1192.19,1170.31l4.44,2.76-.89,23c-1.44,1.8-7.7,0-14-3.89s-10.69-8.75-9.71-10.84Z" transform="translate(1510.54 180.49)"/><path class="cls-27" d="M1192.24,1032.11c33.6-38.78,72.78-38.29,102.49-21.17,28.53,19,46.35,53.91,26.52,101.23-22.45,53.59-99.53,78.68-127.5,61.47C1165.91,1156.22,1154.18,1076,1192.24,1032.11Z" transform="translate(1510.54 180.49)"/><path class="cls-34" d="M1305.47,1105.56c4.49-10.71,6.55-20.26,6.9-28.73" transform="translate(1510.54 180.49)"/><path class="cls-34" d="M1307.4,1050.63a55.28,55.28,0,0,0-3.5-6.48" transform="translate(1510.54 180.49)"/><path class="cls-32" d="M1192.24,1032.11c15.27-17.62,31.68-27.11,47.83-30.64-64.57,39-60,189.57,36.16,159.55-28.51,16.94-61.76,22.54-79.68,14.13l-.81,20.88c-1.44,1.8-7.7,0-14-3.89s-10.69-8.75-9.71-10.84l18.47-10.06C1165.06,1149.83,1155.71,1074.25,1192.24,1032.11Z" transform="translate(1510.54 180.49)"/><path class="cls-27" d="M715.16,1025.12l4.45,2.76-.89,23c-1.45,1.81-7.7,0-14-3.89s-10.69-8.74-9.71-10.84Z" transform="translate(1510.54 180.49)"/><path class="cls-27" d="M715.22,886.92c33.6-38.77,72.77-38.29,102.48-21.16,28.53,19,46.35,53.91,26.53,101.23-22.46,53.59-99.53,78.68-127.51,61.47C688.89,1011,677.16,930.83,715.22,886.92Z" transform="translate(1510.54 180.49)"/><path class="cls-34" d="M828.45,960.38c4.49-10.71,6.54-20.27,6.89-28.74" transform="translate(1510.54 180.49)"/><path class="cls-34" d="M830.38,905.44a57.66,57.66,0,0,0-3.5-6.48" transform="translate(1510.54 180.49)"/><path class="cls-32" d="M715.22,886.92c15.26-17.61,31.67-27.1,47.83-30.63-64.57,39-60,189.57,36.15,159.55-28.5,16.93-61.75,22.54-79.68,14.12l-.8,20.88c-1.45,1.81-7.7,0-14-3.89s-10.69-8.74-9.71-10.84l18.48-10.06C688,1004.64,678.69,929.07,715.22,886.92Z" transform="translate(1510.54 180.49)"/><path class="cls-22" d="M1848,1026.25l-4.29,3,2.14,22.9c1.54,1.73,7.7-.38,13.8-4.65s10.21-9.33,9.12-11.37Z" transform="translate(1510.54 180.49)"/><path class="cls-22" d="M1840.43,888.12c-35.71-36.92-74.84-34.3-103.59-15.55-27.48,20.56-43.39,56.41-21,102.63,25.37,52.33,103.78,73.2,130.8,54.47C1873.53,1010.73,1880.87,929.92,1840.43,888.12Z" transform="translate(1510.54 180.49)"/><path class="cls-35" d="M1731.26,967.73c-5.07-10.46-7.64-19.9-8.46-28.35" transform="translate(1510.54 180.49)"/><path class="cls-35" d="M1726.34,912.92a56.8,56.8,0,0,1,3.14-6.66" transform="translate(1510.54 180.49)"/><path class="cls-24" d="M1840.43,888.12c-16.22-16.77-33.15-25.36-49.49-28,66.68,35.47,70.37,186.2-27.41,161.45,29.42,15.37,63,19.16,80.41,9.77l2,20.82c1.54,1.73,7.7-.38,13.8-4.65s10.21-9.33,9.12-11.37l-19-9C1874,1004.3,1879.24,928.25,1840.43,888.12Z" transform="translate(1510.54 180.49)"/><path class="cls-22" d="M1293.28,423.16l-4.3,3,2.15,22.9c1.54,1.72,7.69-.39,13.8-4.66s10.21-9.32,9.12-11.36Z" transform="translate(1510.54 180.49)"/><path class="cls-22" d="M1285.67,285c-35.71-36.92-74.84-34.29-103.6-15.55-27.48,20.57-43.38,56.42-21,102.63,25.38,52.34,103.79,73.2,130.8,54.48C1318.76,407.63,1326.1,326.83,1285.67,285Z" transform="translate(1510.54 180.49)"/><path class="cls-35" d="M1176.5,364.63c-5.07-10.46-7.65-19.9-8.46-28.34" transform="translate(1510.54 180.49)"/><path class="cls-35" d="M1171.57,309.83a56.24,56.24,0,0,1,3.15-6.67" transform="translate(1510.54 180.49)"/><path class="cls-24" d="M1285.67,285c-16.22-16.77-33.15-25.36-49.49-28,66.68,35.46,70.36,186.19-27.42,161.45,29.42,15.37,63,19.15,80.42,9.76l2,20.83c1.54,1.72,7.69-.39,13.8-4.66s10.21-9.32,9.12-11.36L1295,424C1319.27,401.2,1324.48,325.15,1285.67,285Z" transform="translate(1510.54 180.49)"/></g><g id="TEXTS"><text class="cls-36" transform="translate(2699.41 773.74)"><tspan class="cls-37">Y</tspan><tspan x="22.87" y="0">OUR </tspan><tspan class="cls-38" x="116.68" y="0">L</tspan><tspan x="137.64" y="0">OGO</tspan></text><path class="cls-39" d="M1171.12,569.06h-19.44a2.06,2.06,0,0,0-2,1.73l-3.19,20.08a2.06,2.06,0,0,0,2,2.38h25.82a2.06,2.06,0,0,0,2-2.38l-3.19-20.08A2.06,2.06,0,0,0,1171.12,569.06Z" transform="translate(1510.54 180.49)"/><path class="cls-40" d="M1161.4,557.73a8.71,8.71,0,0,0-8.72,8.72v16.69h17.45V566.45A8.72,8.72,0,0,0,1161.4,557.73Z" transform="translate(1510.54 180.49)"/><text class="cls-41" transform="translate(2267.32 972.57)">G<tspan class="cls-42" x="93.23" y="0">R</tspan><tspan class="cls-43" x="171.59" y="0">AND OPENING</tspan></text></g></g></svg>