<?xml version="1.0" encoding="utf-8"?>
<!-- Generator: Adobe Illustrator 27.5.0, SVG Export Plug-In . SVG Version: 6.00 Build 0)  -->
<svg version="1.1" xmlns="http://www.w3.org/2000/svg" xmlns:xlink="http://www.w3.org/1999/xlink" x="0px" y="0px"
	 viewBox="0 0 820 312" style="enable-background:new 0 0 820 312;" xml:space="preserve">
<g id="BACKGROUND">
	<rect style="fill:#004B84;" width="820" height="312"/>
</g>
<g id="OBJECTS">
	<g>
		<defs>
			<rect id="SVGID_1_" width="820" height="312"/>
		</defs>
		<clipPath id="SVGID_00000160880283539082536370000003025947801168167322_">
			<use xlink:href="#SVGID_1_"  style="overflow:visible;"/>
		</clipPath>
		<g style="clip-path:url(#SVGID_00000160880283539082536370000003025947801168167322_);">
			<path style="fill:#0066A8;" d="M153.454,53c-9.158,18.081-23.502,31.692-40.95,42.182c-18.014,10.829-37.037,19.527-57.647,24.34
				c-20.397,4.763-40.171,1.646-59.589-5.633c-10.413-3.903-19.735-9.491-28.376-16.432C-45.016,87.89-50.849,75.31-52.485,60.519
				c-0.266-2.407-0.196-4.825,0.305-7.184c3.42-16.12,9.632-30.888,20.077-43.872c10.04-12.48,21.727-23.176,34.328-32.928
				c22.934-17.748,47.466-32.89,74.859-42.949c13.098-4.809,26.66-7.863,40.877-7.195c21.832,1.026,35.817,11.101,43.214,31.714
				c8.013,22.332,8.544,44.974,2.651,67.76C161.416,35.183,158.367,44.288,153.454,53z"/>
			<path style="fill:#0066A8;" d="M58.578,265.585c16.225-9.048,33.781-12.665,51.895-12.71c18.702-0.047,36.989,1.87,54.339,7.255
				c17.171,5.329,29.686,16.047,39.722,29.598c5.382,7.267,9.082,15.275,11.571,23.961c3.431,11.973,0.895,23.502-5.833,34.818
				c-1.095,1.842-2.437,3.547-4.056,5.025c-11.063,10.102-23.406,18.036-37.83,22.875c-13.866,4.651-27.959,7.315-42.205,8.909
				c-25.926,2.902-51.606,3.248-76.621-1.281c-11.961-2.166-23.317-5.79-33.156-12.367C1.298,361.567-3.35,348.339,2.356,330.375
				c6.182-19.463,17.895-35.94,34.291-49.765C43.352,274.957,50.402,269.73,58.578,265.585z"/>
			<g>
				<path style="fill:#0066A8;" d="M556.875,193.075c-4.136-15.533-18.199-23.365-11.67-40.778
					c5.246-15.411,17.508-18.947,11.795-47.384c-9.64-47.988-62.628-20.572-71.258-46.017
					c-16.003-47.175-83.299-57.764-119.86-35.438c-11.298,6.899-25.727,20.085-30.735,33.483
					c-9.423,25.211-59.149-13.679-72.65,44.149c-4.274,18.307,6.514,23.64,11.277,39.18c5.983,17.575-2.745,30.95-7.366,46.369
					c-7.228,22.115,4.221,47.586,18.877,61.485c21.581,20.469,48.011,7.331,61.523,23.657c4.688,5.665,11.949,8.428,18.076,11.999
					c7.591,4.424,15.152,8.976,23.319,12.18c16.154,6.337,32.685,4.377,48.133-3.118c11.259-5.462,20.615-14.024,31.478-19.951
					c9.441-5.151,19.317-6.011,29.805-5.359c12.711,0.79,25.552,0.286,35.706-8.81C548.406,245.207,563.41,215.367,556.875,193.075z
					"/>
			</g>
			<path style="fill:#0066A8;" d="M744.589,208.049c-15.07,5.152-31.318,14.781-32.773,29.861
				c-0.663,6.871,1.042,13.553,1.962,20.288c0.92,6.735,0.968,13.958-2.697,20.287c-14.365,24.798-53.534,14.762-73.868,31.453
				c-11.82,9.703-14.068,26.044-7.452,37.841c6.616,11.797,20.567,19.245,35.519,22.051c19.228,3.608,40.609,0.846,60.097-3.588
				c24.205-5.508,48.836-9.833,72.165-18.579c26.76-10.033,52.395-27.189,62.859-50.813c6.567-14.826,6.564-31.064,1.989-45.658
				c-5.015-15.996-15.301-34.623-31.499-43.564c-15.151-8.363-34.225-8.678-52.364-6.905
				C767.032,201.846,755.576,204.293,744.589,208.049z"/>
			<g>
				<path style="fill:#0066A8;" d="M889.695,14.613c0,0-20.133-51.409-94.952-86.737C719.924-107.452,677.33-67.305,664.4-50.145
					c-12.93,17.16-19.756,79.985,56.854,100.125c76.61,20.14,69.817,5.527,111.32,35.295c41.503,29.768,57.567,12.754,64.708,1.281
					C904.423,75.085,906.271,40.079,889.695,14.613z"/>
			</g>
		</g>
	</g>
	<g>
		<defs>
			<rect id="SVGID_00000141451984697119700600000006446979886281822361_" width="820" height="312"/>
		</defs>
		<clipPath id="SVGID_00000064345317715966851270000014606507255718727081_">
			<use xlink:href="#SVGID_00000141451984697119700600000006446979886281822361_"  style="overflow:visible;"/>
		</clipPath>
		<g style="clip-path:url(#SVGID_00000064345317715966851270000014606507255718727081_);">
			<g>
				<g>
					<g>
						<g>
							<path style="fill:#01C0C2;" d="M72.228,82.097c-1.511,5.491-3.115,10.982-4.817,16.474c-1.34,4.338-2.744,8.663-4.212,12.998
								c-0.385,1.16-0.777,2.315-1.179,3.476c-4.138-3.967-8.208-7.972-12.212-12.022c-4.004-4.05-7.935-8.14-11.799-12.268
								c2.459-0.536,4.917-1.09,7.373-1.661c0.72-0.167,1.434-0.333,2.154-0.506c0.651-0.157,1.308-0.314,1.959-0.47
								c1.902-0.455,3.797-0.922,5.691-1.4c2.551-0.646,5.094-1.316,7.636-1.997c0.701-0.189,1.408-0.384,2.109-0.573
								C67.37,83.48,69.802,82.8,72.228,82.097z"/>
							<path style="opacity:0.1;" d="M63.199,111.569c-0.385,1.16-0.777,2.315-1.179,3.476c-4.138-3.967-8.208-7.972-12.212-12.022
								c-4.004-4.05-7.935-8.14-11.799-12.268c2.459-0.536,4.917-1.09,7.373-1.661c0.72-0.167,1.434-0.333,2.154-0.506
								c0.651-0.157,1.308-0.314,1.959-0.47C51.759,94.009,56.228,103.827,63.199,111.569z"/>
						</g>
						<g>
							<path style="fill:#01C0C2;" d="M213.259,2.067c0.924,5.62,1.764,11.278,2.515,16.978c0.598,4.501,1.131,9.017,1.611,13.568
								c0.135,1.215,0.263,2.428,0.383,3.651c-5.417-1.872-10.79-3.808-16.121-5.812c-5.331-2.004-10.612-4.075-15.849-6.209
								c2.009-1.516,4.01-3.047,6.003-4.593c0.584-0.453,1.163-0.903,1.745-1.36c0.526-0.415,1.057-0.832,1.582-1.247
								c1.537-1.209,3.063-2.425,4.584-3.652c2.046-1.654,4.076-3.326,6.101-5.008c0.558-0.465,1.118-0.937,1.676-1.402
								C209.425,5.354,211.35,3.719,213.259,2.067z"/>
							<path style="opacity:0.1;" d="M217.386,32.613c0.135,1.215,0.263,2.428,0.383,3.651c-5.417-1.872-10.79-3.808-16.121-5.812
								c-5.331-2.004-10.612-4.075-15.849-6.209c2.009-1.516,4.01-3.047,6.003-4.593c0.584-0.453,1.163-0.903,1.745-1.36
								c0.526-0.415,1.057-0.832,1.582-1.247C199.65,21.448,207.815,28.496,217.386,32.613z"/>
						</g>
						<g>
							<path style="fill:#FFC901;" d="M-26.231,97.978c-2.726,5.007-5.545,9.995-8.463,14.958c-1.368,2.321-2.758,4.644-4.172,6.955
								c-1.598,2.632-3.231,5.254-4.887,7.871c-3.068-4.81-6.062-9.647-8.987-14.509c-2.931-4.857-5.788-9.739-8.576-14.648
								c2.503,0.04,5.005,0.062,7.507,0.067c0.735-0.002,1.471-0.004,2.2-0.006c0.388,0.001,0.776-0.004,1.163-0.008
								c2.223-0.006,4.446-0.024,6.668-0.065c2.615-0.052,5.229-0.121,7.843-0.207c0.723-0.019,1.446-0.049,2.168-0.074
								C-31.252,98.218-28.744,98.107-26.231,97.978z"/>
							<path style="opacity:0.1;" d="M-38.866,119.891c-1.598,2.632-3.231,5.254-4.887,7.871c-3.068-4.81-6.062-9.647-8.987-14.509
								c-2.931-4.857-5.788-9.739-8.576-14.648c2.503,0.04,5.005,0.062,7.507,0.067c0.735-0.002,1.471-0.004,2.2-0.006
								c0.388,0.001,0.776-0.004,1.163-0.008C-50.303,104.13-48.758,115.414-38.866,119.891z"/>
						</g>
						<g>
							<path style="fill:#FFC901;" d="M119.413,64.543c-0.745,5.652-1.584,11.319-2.525,16.999c-0.442,2.658-0.906,5.324-1.396,7.99
								c-0.546,3.03-1.128,6.064-1.733,9.101c-4.591-3.387-9.122-6.826-13.599-10.313c-4.48-3.48-8.9-7.01-13.265-10.59
								c2.35-0.862,4.694-1.74,7.03-2.634c0.686-0.266,1.371-0.532,2.051-0.795c0.363-0.138,0.723-0.282,1.083-0.426
								c2.072-0.805,4.14-1.62,6.199-2.456c2.422-0.988,4.837-1.991,7.245-3.011c0.668-0.277,1.331-0.565,1.997-0.848
								C114.812,66.57,117.113,65.566,119.413,64.543z"/>
							<path style="opacity:0.1;" d="M115.491,89.532c-0.546,3.03-1.128,6.064-1.733,9.101c-4.591-3.387-9.122-6.826-13.599-10.313
								c-4.48-3.48-8.9-7.01-13.265-10.59c2.35-0.862,4.694-1.74,7.03-2.634c0.686-0.266,1.371-0.532,2.051-0.795
								c0.363-0.138,0.723-0.282,1.083-0.426C99.157,78.93,104.651,88.907,115.491,89.532z"/>
						</g>
						<g>
							<g>
								<path style="fill:#FF3449;" d="M22.945,94.095c-2.331,5.201-4.754,10.385-7.282,15.56c-1.685,3.456-3.411,6.9-5.183,10.34
									c-0.883,1.714-1.772,3.428-2.679,5.136c-3.457-4.555-6.845-9.14-10.164-13.749c-3.313-4.615-6.563-9.259-9.739-13.928
									c2.509-0.158,5.011-0.334,7.514-0.521c0.734-0.057,1.468-0.114,2.202-0.177c0.405-0.035,0.815-0.064,1.219-0.099
									c2.202-0.177,4.403-0.377,6.61-0.588c2.606-0.246,5.211-0.522,7.816-0.809c0.734-0.086,1.467-0.166,2.201-0.252
									C17.956,94.724,20.451,94.421,22.945,94.095z"/>
							</g>
							<path style="opacity:0.1;" d="M10.48,119.995c-0.883,1.714-1.772,3.428-2.679,5.136c-3.457-4.555-6.845-9.14-10.164-13.749
								c-3.313-4.615-6.563-9.259-9.739-13.928c2.509-0.158,5.011-0.334,7.514-0.521c0.734-0.057,1.468-0.114,2.202-0.177
								c0.405-0.035,0.815-0.064,1.219-0.099C0.186,102.117,3.581,112.302,10.48,119.995z"/>
						</g>
						<g>
							<g>
								<path style="fill:#FF3449;" d="M168.507,36.539c-0.024,5.699-0.14,11.421-0.355,17.176
									c-0.141,3.842-0.324,7.69-0.551,11.553c-0.113,1.925-0.232,3.852-0.369,5.781c-5.006-2.764-9.96-5.584-14.862-8.453
									c-4.899-2.877-9.751-5.807-14.546-8.79c2.23-1.161,4.447-2.335,6.659-3.52c0.648-0.349,1.296-0.699,1.941-1.053
									c0.356-0.196,0.719-0.389,1.075-0.584c1.941-1.054,3.873-2.128,5.805-3.216c2.283-1.281,4.553-2.588,6.819-3.905
									c0.636-0.376,1.274-0.746,1.91-1.122C164.2,39.135,166.358,37.848,168.507,36.539z"/>
							</g>
							<path style="opacity:0.1;" d="M167.601,65.268c-0.113,1.925-0.232,3.852-0.369,5.781c-5.006-2.764-9.96-5.584-14.862-8.453
								c-4.899-2.877-9.751-5.807-14.546-8.79c2.23-1.161,4.447-2.335,6.659-3.52c0.648-0.349,1.296-0.699,1.941-1.053
								c0.356-0.196,0.719-0.389,1.075-0.584C150.948,53.093,158.178,61.03,167.601,65.268z"/>
						</g>
						<g>
							<g>
								<path style="fill:#FF3449;" d="M268.512-59.821c2.134,5.285,4.191,10.625,6.169,16.034c1.323,3.61,2.61,7.241,3.861,10.903
									c0.623,1.825,1.243,3.653,1.846,5.491c-5.679-0.665-11.333-1.4-16.955-2.202c-5.623-0.81-11.224-1.686-16.79-2.633
									c1.625-1.918,3.233-3.844,4.832-5.777c0.468-0.569,0.935-1.137,1.399-1.71c0.255-0.316,0.519-0.632,0.774-0.947
									c1.398-1.71,2.78-3.435,4.157-5.173c1.628-2.049,3.236-4.118,4.835-6.195c0.446-0.588,0.897-1.173,1.344-1.761
									C265.507-55.788,267.018-57.797,268.512-59.821z"/>
							</g>
							<path style="opacity:0.1;" d="M278.543-32.884c0.623,1.825,1.243,3.653,1.846,5.491c-5.679-0.665-11.333-1.4-16.955-2.202
								c-5.623-0.81-11.224-1.686-16.79-2.633c1.625-1.918,3.233-3.844,4.832-5.777c0.468-0.569,0.935-1.137,1.399-1.71
								c0.255-0.316,0.519-0.632,0.774-0.947C258.521-37.855,268.216-33.243,278.543-32.884z"/>
						</g>
						<g>
							<g>
								<g>
									<path style="fill:#FFC901;" d="M247.587-33.094c1.62,5.464,3.159,10.976,4.613,16.549c0.973,3.72,1.908,7.457,2.804,11.221
										c0.446,1.876,0.889,3.755,1.314,5.642c-5.59-1.203-11.148-2.474-16.668-3.809c-5.52-1.342-11.012-2.749-16.462-4.222
										c1.8-1.755,3.584-3.518,5.361-5.29c0.52-0.521,1.039-1.043,1.555-1.569c0.284-0.29,0.577-0.579,0.861-0.869
										c1.555-1.569,3.095-3.155,4.631-4.753c1.816-1.885,3.613-3.791,5.403-5.706c0.501-0.543,1.005-1.082,1.505-1.625
										C244.211-29.367,245.907-31.222,247.587-33.094z"/>
								</g>
							</g>
							<path style="opacity:0.1;" d="M255.004-5.324c0.446,1.876,0.889,3.755,1.314,5.642c-5.59-1.203-11.148-2.474-16.668-3.809
								c-5.52-1.342-11.012-2.749-16.462-4.222c1.8-1.755,3.584-3.518,5.361-5.29c0.52-0.521,1.039-1.043,1.555-1.569
								c0.284-0.29,0.577-0.579,0.861-0.869C235.547-12.181,244.758-6.665,255.004-5.324z"/>
						</g>
					</g>
					<g>
						<path style="fill:#FFFFFF;" d="M73.703,82.119c17.132-5.298,33.976-11.883,50.451-19.733
							c40.574-19.333,76.595-45.234,107.063-76.985c13.594-14.081,26.631-28.982,38.746-44.288l-1.313-1.04
							c-12.082,15.263-25.082,30.122-38.64,44.166C169.246,47.563,84.238,88.067-3.218,95.369
							c-19.448,1.683-39.178,2.418-58.644,2.187l-0.02,1.675c19.521,0.232,39.306-0.506,58.806-2.193
							C22.967,94.864,48.644,89.868,73.703,82.119z"/>
					</g>
				</g>
			</g>
			<g>
				<g>
					<g>
						<g>
							<path style="fill:#01C0C2;" d="M747.772,82.097c1.511,5.491,3.115,10.982,4.817,16.474c1.34,4.338,2.744,8.663,4.212,12.998
								c0.385,1.16,0.777,2.315,1.179,3.476c4.138-3.967,8.208-7.972,12.212-12.022c4.004-4.05,7.935-8.14,11.799-12.268
								c-2.459-0.536-4.917-1.09-7.373-1.661c-0.72-0.167-1.434-0.333-2.154-0.506c-0.651-0.157-1.308-0.314-1.959-0.47
								c-1.902-0.455-3.797-0.922-5.691-1.4c-2.551-0.646-5.094-1.316-7.636-1.997c-0.701-0.189-1.408-0.384-2.109-0.573
								C752.63,83.48,750.198,82.8,747.772,82.097z"/>
							<path style="opacity:0.1;" d="M756.801,111.569c0.385,1.16,0.777,2.315,1.179,3.476c4.138-3.967,8.208-7.972,12.212-12.022
								c4.004-4.05,7.935-8.14,11.799-12.268c-2.459-0.536-4.917-1.09-7.373-1.661c-0.72-0.167-1.434-0.333-2.154-0.506
								c-0.651-0.157-1.308-0.314-1.959-0.47C768.241,94.009,763.772,103.827,756.801,111.569z"/>
						</g>
						<g>
							<path style="fill:#01C0C2;" d="M606.74,2.067c-0.924,5.62-1.764,11.278-2.515,16.978c-0.598,4.501-1.131,9.017-1.611,13.568
								c-0.135,1.215-0.263,2.428-0.383,3.651c5.417-1.872,10.79-3.808,16.121-5.812c5.331-2.004,10.612-4.075,15.849-6.209
								c-2.009-1.516-4.01-3.047-6.003-4.593c-0.584-0.453-1.163-0.903-1.745-1.36c-0.526-0.415-1.057-0.832-1.582-1.247
								c-1.537-1.209-3.063-2.425-4.584-3.652c-2.046-1.654-4.076-3.326-6.101-5.008c-0.558-0.465-1.118-0.937-1.676-1.402
								C610.575,5.354,608.65,3.719,606.74,2.067z"/>
							<path style="opacity:0.1;" d="M602.614,32.613c-0.135,1.215-0.263,2.428-0.383,3.651c5.417-1.872,10.79-3.808,16.121-5.812
								c5.331-2.004,10.612-4.075,15.849-6.209c-2.009-1.516-4.01-3.047-6.003-4.593c-0.584-0.453-1.163-0.903-1.745-1.36
								c-0.526-0.415-1.057-0.832-1.582-1.247C620.35,21.448,612.184,28.496,602.614,32.613z"/>
						</g>
						<g>
							<path style="fill:#FFC901;" d="M846.231,97.978c2.725,5.007,5.544,9.995,8.463,14.958c1.368,2.321,2.758,4.644,4.172,6.955
								c1.598,2.632,3.23,5.254,4.887,7.871c3.068-4.81,6.062-9.647,8.987-14.509c2.931-4.857,5.788-9.739,8.576-14.648
								c-2.503,0.04-5.005,0.062-7.507,0.067c-0.735-0.002-1.471-0.004-2.2-0.006c-0.388,0.001-0.776-0.004-1.163-0.008
								c-2.223-0.006-4.446-0.024-6.668-0.065c-2.615-0.052-5.229-0.121-7.843-0.207c-0.723-0.019-1.445-0.049-2.168-0.074
								C851.252,98.218,848.744,98.107,846.231,97.978z"/>
							<path style="opacity:0.1;" d="M858.866,119.891c1.598,2.632,3.23,5.254,4.887,7.871c3.068-4.81,6.062-9.647,8.987-14.509
								c2.931-4.857,5.788-9.739,8.576-14.648c-2.503,0.04-5.005,0.062-7.507,0.067c-0.735-0.002-1.471-0.004-2.2-0.006
								c-0.388,0.001-0.776-0.004-1.163-0.008C870.303,104.13,868.758,115.414,858.866,119.891z"/>
						</g>
						<g>
							<path style="fill:#FFC901;" d="M700.587,64.543c0.745,5.652,1.584,11.319,2.525,16.999c0.443,2.658,0.906,5.324,1.396,7.99
								c0.546,3.03,1.128,6.064,1.733,9.101c4.591-3.387,9.122-6.826,13.599-10.313c4.48-3.48,8.9-7.01,13.265-10.59
								c-2.35-0.862-4.694-1.74-7.03-2.634c-0.685-0.266-1.371-0.532-2.051-0.795c-0.362-0.138-0.723-0.282-1.083-0.426
								c-2.072-0.805-4.14-1.62-6.199-2.456c-2.422-0.988-4.837-1.991-7.245-3.011c-0.668-0.277-1.331-0.565-1.997-0.848
								C705.188,66.57,702.887,65.566,700.587,64.543z"/>
							<path style="opacity:0.1;" d="M704.508,89.532c0.546,3.03,1.128,6.064,1.733,9.101c4.591-3.387,9.122-6.826,13.599-10.313
								c4.48-3.48,8.9-7.01,13.265-10.59c-2.35-0.862-4.694-1.74-7.03-2.634c-0.685-0.266-1.371-0.532-2.051-0.795
								c-0.362-0.138-0.723-0.282-1.083-0.426C720.843,78.93,715.349,88.907,704.508,89.532z"/>
						</g>
						<g>
							<g>
								<path style="fill:#FF3449;" d="M797.055,94.095c2.331,5.201,4.754,10.385,7.282,15.56c1.685,3.456,3.411,6.9,5.183,10.34
									c0.883,1.714,1.772,3.428,2.679,5.136c3.457-4.555,6.845-9.14,10.164-13.749c3.313-4.615,6.563-9.259,9.739-13.928
									c-2.509-0.158-5.011-0.334-7.514-0.521c-0.734-0.057-1.468-0.114-2.202-0.177c-0.405-0.035-0.815-0.064-1.219-0.099
									c-2.202-0.177-4.403-0.377-6.61-0.588c-2.606-0.246-5.211-0.522-7.816-0.809c-0.734-0.086-1.467-0.166-2.201-0.252
									C802.044,94.724,799.549,94.421,797.055,94.095z"/>
							</g>
							<path style="opacity:0.1;" d="M809.52,119.995c0.883,1.714,1.772,3.428,2.679,5.136c3.457-4.555,6.845-9.14,10.164-13.749
								c3.313-4.615,6.563-9.259,9.739-13.928c-2.509-0.158-5.011-0.334-7.514-0.521c-0.734-0.057-1.468-0.114-2.202-0.177
								c-0.405-0.035-0.815-0.064-1.219-0.099C819.814,102.117,816.419,112.302,809.52,119.995z"/>
						</g>
						<g>
							<g>
								<path style="fill:#FF3449;" d="M651.493,36.539c0.024,5.699,0.14,11.421,0.355,17.176c0.141,3.842,0.324,7.69,0.551,11.553
									c0.113,1.925,0.232,3.852,0.369,5.781c5.006-2.764,9.961-5.584,14.862-8.453c4.899-2.877,9.751-5.807,14.546-8.79
									c-2.23-1.161-4.447-2.335-6.659-3.52c-0.648-0.349-1.296-0.699-1.941-1.053c-0.356-0.196-0.719-0.389-1.075-0.584
									c-1.941-1.054-3.873-2.128-5.805-3.216c-2.283-1.281-4.553-2.588-6.819-3.905c-0.636-0.376-1.274-0.746-1.91-1.122
									C655.8,39.135,653.641,37.848,651.493,36.539z"/>
							</g>
							<path style="opacity:0.1;" d="M652.399,65.268c0.113,1.925,0.232,3.852,0.369,5.781c5.006-2.764,9.961-5.584,14.862-8.453
								c4.899-2.877,9.751-5.807,14.546-8.79c-2.23-1.161-4.447-2.335-6.659-3.52c-0.648-0.349-1.296-0.699-1.941-1.053
								c-0.356-0.196-0.719-0.389-1.075-0.584C669.052,53.093,661.822,61.03,652.399,65.268z"/>
						</g>
						<g>
							<g>
								<path style="fill:#FF3449;" d="M551.487-59.821c-2.133,5.285-4.191,10.625-6.169,16.034
									c-1.323,3.61-2.61,7.241-3.861,10.903c-0.623,1.825-1.243,3.653-1.846,5.491c5.679-0.665,11.333-1.4,16.955-2.202
									c5.623-0.81,11.224-1.686,16.79-2.633c-1.625-1.918-3.233-3.844-4.832-5.777c-0.468-0.569-0.935-1.137-1.399-1.71
									c-0.255-0.316-0.519-0.632-0.774-0.947c-1.398-1.71-2.78-3.435-4.157-5.173c-1.628-2.049-3.236-4.118-4.834-6.195
									c-0.446-0.588-0.897-1.173-1.344-1.761C554.493-55.788,552.982-57.797,551.487-59.821z"/>
							</g>
							<path style="opacity:0.1;" d="M541.457-32.884c-0.623,1.825-1.243,3.653-1.846,5.491c5.679-0.665,11.333-1.4,16.955-2.202
								c5.623-0.81,11.224-1.686,16.79-2.633c-1.625-1.918-3.233-3.844-4.832-5.777c-0.468-0.569-0.935-1.137-1.399-1.71
								c-0.255-0.316-0.519-0.632-0.774-0.947C561.479-37.855,551.784-33.243,541.457-32.884z"/>
						</g>
						<g>
							<g>
								<g>
									<path style="fill:#FFC901;" d="M572.413-33.094c-1.62,5.464-3.159,10.976-4.613,16.549
										c-0.973,3.72-1.908,7.457-2.804,11.221c-0.446,1.876-0.889,3.755-1.314,5.642c5.59-1.203,11.147-2.474,16.668-3.809
										c5.52-1.342,11.012-2.749,16.462-4.222c-1.8-1.755-3.584-3.518-5.361-5.29c-0.52-0.521-1.039-1.043-1.555-1.569
										c-0.284-0.29-0.577-0.579-0.861-0.869c-1.555-1.569-3.095-3.155-4.631-4.753c-1.816-1.885-3.614-3.791-5.403-5.706
										c-0.501-0.543-1.005-1.082-1.505-1.625C575.789-29.367,574.093-31.222,572.413-33.094z"/>
								</g>
							</g>
							<path style="opacity:0.1;" d="M564.996-5.324c-0.446,1.876-0.889,3.755-1.314,5.642c5.59-1.203,11.147-2.474,16.668-3.809
								c5.52-1.342,11.012-2.749,16.462-4.222c-1.8-1.755-3.584-3.518-5.361-5.29c-0.52-0.521-1.039-1.043-1.555-1.569
								c-0.284-0.29-0.577-0.579-0.861-0.869C584.453-12.181,575.242-6.665,564.996-5.324z"/>
						</g>
					</g>
					<g>
						<path style="fill:#FFFFFF;" d="M746.297,82.119c-17.132-5.298-33.976-11.883-50.451-19.733
							c-40.574-19.333-76.595-45.234-107.063-76.985c-13.594-14.081-26.631-28.982-38.747-44.288l1.313-1.04
							c12.082,15.263,25.082,30.122,38.64,44.166C650.754,47.563,735.762,88.067,823.218,95.369
							c19.448,1.683,39.178,2.418,58.644,2.187l0.02,1.675c-19.521,0.232-39.306-0.506-58.807-2.193
							C797.033,94.864,771.356,89.868,746.297,82.119z"/>
					</g>
				</g>
			</g>
		</g>
		<g style="clip-path:url(#SVGID_00000064345317715966851270000014606507255718727081_);">
			<g>
				<g>
					<g>
						<path style="fill:#FFFFFF;" d="M198.792,219.668l0.847-0.274c-9.365-28.902-16.953-56.935-7.08-82.174
							c3.996-10.216,10.713-19.215,17.209-27.918c4-5.358,8.135-10.899,11.626-16.7c9.144-15.192,5.675-29.121-1.126-50.255
							l-0.848,0.273c6.723,20.894,10.16,34.654,1.21,49.523c-3.468,5.762-7.59,11.285-11.577,16.626
							c-6.531,8.75-13.285,17.798-17.324,28.126C181.75,162.408,189.376,190.606,198.792,219.668z"/>
					</g>
					<g>
						<g>
							<path style="fill:#01C0C2;" d="M223.858,63.611c0,0-3.501,12.814-3.516,12.87c-0.213,0.781,0.155,1.476,0.939,1.728
								c0.483,0.155,1.013,0.1,1.494-0.061c0.43-0.144,0.848-0.374,1.301-0.368c0.588,0.008,1.087,0.404,1.597,0.698
								c0.745,0.429,1.603,0.66,2.463,0.665c0.522,0.003,1.06-0.082,1.503-0.357c0.936-0.581,0.759-1.635,0.798-2.584
								c0.009-0.211,0.041-0.434,0.173-0.598c0.269-0.335,0.63-0.064,0.958-0.02c0.457,0.06,0.888-0.104,1.26-0.361L228.33,63.47
								L223.858,63.611z"/>
						</g>
						<g>
							<g>
								<g>
									<path style="fill:#01C0C2;" d="M226.782,66.037c-12.045-0.141-22.897-8.586-30.895-20.395
										c-5.596-8.273-9.796-18.196-12.022-28.077c-1.227-5.429-1.853-10.831-1.792-15.955
										c0.324-27.761,20.948-50.031,46.049-49.737c13.016,0.155,24.682,6.338,32.858,16.13c0.783,0.93,1.527,1.897,2.239,2.89
										c6.247,8.717,9.924,19.782,9.78,31.787C272.676,30.444,251.892,66.331,226.782,66.037z"/>
								</g>
							</g>
							<g style="opacity:0.08;">
								<path d="M226.782,66.037c-12.045-0.141-22.897-8.586-30.895-20.395c4.789,1.874,10.786,3.66,11.862,3.867
									c9.027,1.753,18.638,0.554,26.898-3.504c14.789-7.266,22.409-22.587,26.312-37.889c3.379-13.242,3.403-27.042,0.02-40.114
									c0.783,0.93,1.527,1.897,2.239,2.89c6.247,8.717,9.924,19.782,9.78,31.787C272.676,30.444,251.892,66.331,226.782,66.037z"
									/>
							</g>
						</g>
					</g>
				</g>
			</g>
		</g>
		<g style="clip-path:url(#SVGID_00000064345317715966851270000014606507255718727081_);">
			<g>
				<g>
					<g>
						<path style="fill:#FFFFFF;" d="M550.226,458.869l0.636-0.206c-7.038-21.721-12.741-42.79-5.321-61.759
							c3.003-7.678,8.052-14.441,12.933-20.982c3.006-4.027,6.114-8.191,8.738-12.551c6.872-11.418,4.265-21.886-0.846-37.769
							l-0.637,0.205c5.053,15.703,7.636,26.044,0.91,37.219c-2.607,4.331-5.705,8.482-8.701,12.495
							c-4.908,6.576-9.984,13.376-13.02,21.138C537.418,415.835,543.149,437.027,550.226,458.869z"/>
					</g>
					<g>
						<g>
							<path style="fill:#01C0C2;" d="M569.064,341.584c0,0-2.631,9.63-2.643,9.672c-0.16,0.587,0.116,1.109,0.706,1.299
								c0.363,0.116,0.761,0.075,1.123-0.046c0.323-0.108,0.637-0.281,0.978-0.276c0.442,0.006,0.817,0.304,1.2,0.524
								c0.56,0.322,1.205,0.496,1.851,0.5c0.392,0.002,0.796-0.062,1.13-0.269c0.704-0.436,0.571-1.229,0.6-1.942
								c0.006-0.159,0.031-0.326,0.13-0.45c0.202-0.252,0.474-0.048,0.72-0.015c0.344,0.045,0.668-0.078,0.947-0.271l-3.381-8.832
								L569.064,341.584z"/>
						</g>
						<g>
							<g>
								<g>
									<path style="fill:#01C0C2;" d="M571.262,343.407c-9.052-0.106-17.208-6.453-23.219-15.328
										c-4.206-6.217-7.362-13.675-9.035-21.102c-0.922-4.08-1.393-8.14-1.346-11.991c0.244-20.864,15.744-37.601,34.608-37.38
										c9.782,0.117,18.549,4.764,24.694,12.122c0.588,0.699,1.148,1.426,1.683,2.172c4.695,6.551,7.458,14.867,7.35,23.889
										C605.753,316.656,590.133,343.628,571.262,343.407z"/>
								</g>
							</g>
							<g style="opacity:0.08;">
								<path d="M571.262,343.407c-9.052-0.106-17.208-6.453-23.219-15.328c3.599,1.409,8.107,2.751,8.915,2.906
									c6.785,1.318,14.007,0.416,20.216-2.634c11.115-5.461,16.841-16.975,19.775-28.476c2.54-9.952,2.557-20.324,0.015-30.148
									c0.588,0.699,1.148,1.426,1.683,2.172c4.695,6.551,7.458,14.867,7.35,23.889
									C605.753,316.656,590.133,343.628,571.262,343.407z"/>
							</g>
						</g>
					</g>
				</g>
			</g>
		</g>
		<g style="clip-path:url(#SVGID_00000064345317715966851270000014606507255718727081_);">
			<g>
				<g>
					<g>
						<path style="fill:#FFFFFF;" d="M596.701,206.288l-0.719-0.251c8.59-24.549,15.643-48.39,7.695-70.187
							c-3.217-8.823-8.786-16.658-14.172-24.235c-3.316-4.665-6.745-9.49-9.618-14.524c-7.523-13.184-4.277-25.036,1.964-42.988
							l0.72,0.25c-6.17,17.748-9.385,29.456-2.022,42.36c2.854,5.001,6.272,9.81,9.577,14.46
							c5.415,7.619,11.015,15.497,14.267,24.416C612.426,157.622,605.338,181.604,596.701,206.288z"/>
					</g>
					<g>
						<g>
							<path style="fill:#FF3449;" d="M573.814,72.396c0,0-1.928,11.207-1.936,11.256c-0.117,0.683,0.254,1.245,0.943,1.395
								c0.424,0.092,0.872,0.002,1.268-0.175c0.354-0.158,0.692-0.388,1.078-0.421c0.502-0.042,0.959,0.255,1.418,0.463
								c0.67,0.304,1.42,0.431,2.153,0.364c0.445-0.041,0.896-0.158,1.252-0.428c0.75-0.572,0.512-1.456,0.467-2.268
								c-0.01-0.181-0.001-0.373,0.098-0.524c0.202-0.308,0.532-0.106,0.815-0.096c0.395,0.014,0.748-0.162,1.044-0.411
								l-4.801-9.643L573.814,72.396z"/>
						</g>
						<g>
							<g>
								<path style="fill:#FF3449;" d="M576.505,74.222c-10.275,0.871-20.217-5.431-28.004-14.835
									c-5.45-6.588-9.845-14.698-12.556-22.935c-1.492-4.525-2.471-9.076-2.841-13.448c-2.01-23.682,13.73-44.357,35.143-46.173
									c11.104-0.94,21.553,3.368,29.326,11.038c0.743,0.728,1.458,1.491,2.146,2.278c6.041,6.913,10.085,16.039,10.951,26.28
									C612.68,40.114,597.926,72.406,576.505,74.222z"/>
							</g>
							<g style="opacity:0.2;">
								<path d="M576.505,74.222c-10.275,0.871-20.217-5.431-28.004-14.835c4.234,1.203,9.492,2.231,10.426,2.319
									c7.837,0.751,15.927-1.063,22.631-5.201c12.004-7.409,17.235-21.091,19.301-34.452c1.789-11.562,0.673-23.323-3.286-34.183
									c0.743,0.728,1.458,1.491,2.146,2.278c6.041,6.913,10.085,16.039,10.951,26.28C612.68,40.114,597.926,72.406,576.505,74.222
									z"/>
							</g>
						</g>
					</g>
				</g>
			</g>
		</g>
		<g style="clip-path:url(#SVGID_00000064345317715966851270000014606507255718727081_);">
			<g>
				<g>
					<g>
						<path style="fill:#FFFFFF;" d="M672.195,355l0.684-0.238c-8.144-23.332-14.828-45.99-7.261-66.695
							c3.063-8.381,8.36-15.822,13.484-23.018c3.154-4.431,6.416-9.012,9.149-13.793c7.158-12.522,4.082-23.785-1.835-40.847
							l-0.684,0.237c5.85,16.868,8.896,27.995,1.89,40.25c-2.715,4.749-5.966,9.316-9.11,13.732
							c-5.151,7.235-10.477,14.717-13.574,23.189C657.288,308.748,664.005,331.539,672.195,355z"/>
					</g>
					<g>
						<g>
							<path style="fill:#FFC901;" d="M689.723,227.636c0,0-2.613,10.484-2.624,10.53c-0.159,0.639,0.153,1.197,0.795,1.388
								c0.395,0.117,0.826,0.063,1.214-0.077c0.347-0.125,0.682-0.32,1.051-0.323c0.479-0.005,0.891,0.309,1.311,0.538
								c0.614,0.335,1.316,0.508,2.015,0.496c0.424-0.007,0.86-0.086,1.216-0.318c0.751-0.489,0.588-1.343,0.602-2.116
								c0.003-0.172,0.025-0.353,0.13-0.49c0.213-0.277,0.511-0.063,0.779-0.034c0.373,0.041,0.721-0.101,1.018-0.317l-3.873-9.474
								L689.723,227.636z"/>
						</g>
						<g>
							<g>
								<path style="fill:#FFC901;" d="M692.145,229.555c-9.797,0.105-18.777-6.563-25.497-16.02
									c-4.702-6.625-8.299-14.618-10.29-22.612c-1.097-4.392-1.705-8.774-1.749-12.942c-0.244-22.582,16.12-41.069,36.537-41.289
									c10.588-0.112,20.187,4.702,27.015,12.515c0.653,0.742,1.277,1.515,1.874,2.309c5.24,6.975,8.432,15.905,8.535,25.67
									C728.814,199.771,712.57,229.335,692.145,229.555z"/>
							</g>
							<g style="opacity:0.08;">
								<path d="M692.145,229.555c-9.797,0.105-18.777-6.563-25.497-16.02c3.928,1.436,8.838,2.779,9.717,2.928
									c7.373,1.261,15.166,0.109,21.81-3.342c11.894-6.179,17.81-18.778,20.704-31.293c2.506-10.831,2.272-22.053-0.718-32.621
									c0.653,0.742,1.277,1.515,1.874,2.309c5.24,6.975,8.432,15.905,8.535,25.67C728.814,199.771,712.57,229.335,692.145,229.555
									z"/>
							</g>
						</g>
					</g>
				</g>
			</g>
		</g>
		<g style="clip-path:url(#SVGID_00000064345317715966851270000014606507255718727081_);">
			<g>
				<g>
					<g>
						<path style="fill:#FFFFFF;" d="M112.195,392l0.684-0.238c-8.144-23.332-14.828-45.99-7.261-66.695
							c3.063-8.381,8.36-15.822,13.483-23.018c3.155-4.431,6.416-9.012,9.149-13.793c7.158-12.522,4.082-23.785-1.835-40.847
							l-0.684,0.237c5.85,16.868,8.896,27.995,1.89,40.25c-2.715,4.749-5.966,9.316-9.11,13.732
							c-5.151,7.235-10.477,14.717-13.574,23.189C97.288,345.748,104.005,368.539,112.195,392z"/>
					</g>
					<g>
						<g>
							<path style="fill:#FFC901;" d="M129.723,264.636c0,0-2.613,10.484-2.624,10.53c-0.159,0.639,0.153,1.197,0.795,1.388
								c0.395,0.117,0.826,0.063,1.214-0.077c0.347-0.125,0.683-0.319,1.051-0.323c0.479-0.005,0.891,0.309,1.311,0.538
								c0.614,0.335,1.316,0.508,2.015,0.496c0.424-0.007,0.86-0.086,1.216-0.318c0.751-0.489,0.588-1.344,0.602-2.116
								c0.003-0.172,0.025-0.353,0.13-0.49c0.213-0.277,0.511-0.063,0.779-0.034c0.373,0.041,0.72-0.101,1.018-0.317l-3.874-9.474
								L129.723,264.636z"/>
						</g>
						<g>
							<g>
								<path style="fill:#FFC901;" d="M132.145,266.555c-9.797,0.105-18.777-6.563-25.497-16.02
									c-4.702-6.625-8.299-14.618-10.29-22.612c-1.097-4.392-1.705-8.774-1.749-12.942c-0.244-22.582,16.119-41.069,36.537-41.289
									c10.588-0.112,20.187,4.702,27.015,12.515c0.653,0.742,1.277,1.515,1.874,2.309c5.24,6.975,8.432,15.905,8.535,25.67
									C168.814,236.771,152.57,266.335,132.145,266.555z"/>
							</g>
							<g style="opacity:0.08;">
								<path d="M132.145,266.555c-9.797,0.105-18.777-6.563-25.497-16.02c3.928,1.436,8.838,2.779,9.717,2.928
									c7.373,1.261,15.166,0.109,21.81-3.342c11.894-6.179,17.809-18.778,20.704-31.293c2.506-10.831,2.272-22.053-0.717-32.621
									c0.653,0.742,1.277,1.515,1.874,2.309c5.24,6.975,8.432,15.905,8.535,25.67C168.814,236.771,152.57,266.335,132.145,266.555
									z"/>
							</g>
						</g>
					</g>
				</g>
			</g>
		</g>
	</g>
	<g>
		<defs>
			<rect id="SVGID_00000104702549564061414560000014241390665226754733_" width="820" height="312"/>
		</defs>
		<clipPath id="SVGID_00000087370481405824016060000018286861972920155057_">
			<use xlink:href="#SVGID_00000104702549564061414560000014241390665226754733_"  style="overflow:visible;"/>
		</clipPath>
		<g style="clip-path:url(#SVGID_00000087370481405824016060000018286861972920155057_);">
			<g>
				<g>
					<g>
						<g>
							<path style="fill:#DB758B;" d="M185.788,224.42c0,0,8.141-18.123,14.537-20.062c0.376-0.114,1.049,0.074,1.427,0.112
								c1.325,0.131,2.645,0.321,3.956,0.554c3.637,0.645,7.245,1.711,10.44,3.603c2.739,1.622,5.075,3.929,7.534,5.939
								c0,0,3.489,7.916-17.445-0.176l-7.85,9.255c0,0,9.788-7.439,22.678-3.574c0,0,4.167,1.151,8.141,4.35
								c0,0,4.06,3.867,4.07,3.877c0.419,0.399-0.094,2.064-0.328,2.516c-0.436,0.843-1.199,1.429-2.126,1.633
								c-2.225,0.488-5.055-0.796-6.849-1.992l-4.361-2.932l-21.515,6.009L185.788,224.42z"/>
						</g>
						<g>
							<g>
								<path style="fill:#EE2C2C;" d="M219.14,210.996c-0.009,0.011-0.018,0.023-0.027,0.036c-0.549,0.827,0.821,2.063,1.336,2.546
									c0.944,0.885,2.061,1.533,3.345,1.766c0.44,0.08,0.671-0.158,0.601-0.613c-0.053-0.34-0.25-0.639-0.47-0.903
									c-1-1.2-2.499-1.919-3.871-2.604C219.818,211.105,219.374,210.723,219.14,210.996z"/>
							</g>
							<g>
								<path style="fill:#EE2C2C;" d="M230.115,225.287c-0.031-0.019-0.079,0.942-0.063,1.038c0.05,0.302,0.158,0.581,0.301,0.852
									c0.663,1.253,2.207,2.223,3.601,2.397c0.119,0.015,0.246,0.023,0.352-0.033
									C235.046,229.153,230.694,225.643,230.115,225.287z"/>
							</g>
						</g>
					</g>
					<g>
						<path d="M229.923,238.44c-6.425,0-15.168-8.933-15.571-9.349l-0.166-0.171l6.9-4.758l12.561,11.809l-0.01,0.098
							c-0.142,1.469-1.868,2.084-1.941,2.109C231.132,238.358,230.538,238.44,229.923,238.44z M214.808,228.98
							c1.387,1.381,10.984,10.658,16.76,8.817c0.01-0.004,1.469-0.526,1.655-1.67l-12.178-11.448L214.808,228.98z"/>
					</g>
					<g>
						<g>
							<g>
								<path style="fill:#FFFFFF;" d="M174.643,137.777c0,0,4.652-3.683,7.947-2.326c0,0,1.357-0.194,2.326,4.458l11.824,52.141
									c0,0,3.825,11.753,11.484,19.383l26.166,26.805c0,0,16.235-14.344,21.662-8.654c1.451,1.521-0.377,4.882-1.105,6.232
									c-4.11,7.625-11.639,14.984-18.359,20.353c-4.367,3.489-9.42,6.28-14.924,7.253c-2.809,0.496-6.563-0.335-5.997-3.925
									c0.286-1.817,1.096-3.516,2.079-5.07c0.652-1.03,10.807-11.956,11.17-11.593c0,0-4.46-8.318-15.749-18.414
									c-3.207-2.869-6.453-5.694-9.705-8.512c-2.879-2.495-5.729-5.551-9.122-7.355c-1.753-0.931-3.938-1.207-5.786-1.951
									c-15.879-6.394-32.913-10.643-49.25-15.737c-2.047-0.639-4.095-1.277-6.142-1.915c0,0-7.947,0.194,2.326-12.987
									C135.489,175.962,154.678,151.152,174.643,137.777z"/>
							</g>
							<g>
								<path style="fill:#4CC9E7;" d="M131.818,188.311c-0.385,0-0.724-0.063-1.02-0.19c-0.88-0.378-1.14-1.2-1.155-1.626
									c-0.012-0.333,0.249-0.613,0.583-0.625c0.336-0.021,0.608,0.244,0.625,0.573c0.006,0.072,0.054,0.417,0.442,0.575
									c0.856,0.349,3.922,0.206,13.876-8.599c0.309-0.269,30.575-26.617,35.694-40.08c0.119-0.312,0.468-0.468,0.779-0.35
									c0.312,0.119,0.468,0.468,0.35,0.78c-5.227,13.746-34.773,39.471-36.028,40.559
									C139.215,185.297,134.467,188.311,131.818,188.311z"/>
							</g>
							<g>
								<path style="fill:#4CC9E7;" d="M231.865,246.516c-0.73,0-1.374-0.203-1.853-0.592c-0.581-0.471-0.85-1.139-1.088-1.729
									c-0.151-0.373-0.293-0.726-0.496-1.005c-0.197-0.269-0.137-0.647,0.132-0.844c0.27-0.197,0.648-0.137,0.844,0.133
									c0.291,0.399,0.469,0.839,0.64,1.264c0.201,0.498,0.391,0.968,0.729,1.242c0.453,0.368,1.126,0.342,1.487,0.295
									c1.143-0.151,2.927-1.102,3.934-2.432c0.366-0.484,0.779-1.227,0.665-2.019c-0.095-0.656-0.735-0.961-1.303-1.028
									c-0.331-0.039-0.568-0.339-0.529-0.671c0.039-0.331,0.342-0.571,0.671-0.529c1.273,0.15,2.198,0.957,2.357,2.055
									c0.138,0.954-0.172,1.964-0.897,2.922c-1.108,1.465-3.101,2.685-4.739,2.901
									C232.23,246.503,232.045,246.516,231.865,246.516z"/>
							</g>
							<g>
								<path style="fill:#4CC9E7;" d="M219.706,262.938c-0.75,0-1.426-0.121-1.997-0.394c-1.188-0.568-1.818-1.69-1.874-3.335
									c-0.011-0.334,0.25-0.613,0.583-0.624c0.327-0.03,0.613,0.25,0.624,0.583c0.04,1.174,0.429,1.922,1.188,2.286
									c3.583,1.714,14.182-4.779,16.708-6.676c3.838-2.884,7.562-6.36,11.067-10.332c0.323-0.365,0.649-0.732,0.977-1.1
									c2.738-3.072,5.57-6.249,7.064-10.034c0.404-1.025,0.949-2.881,0.05-3.791c-0.235-0.238-0.232-0.62,0.005-0.855
									c0.238-0.234,0.62-0.232,0.854,0.005c1.312,1.327,0.84,3.498,0.214,5.084c-1.573,3.985-4.477,7.243-7.286,10.395
									c-0.326,0.367-0.652,0.731-0.973,1.095c-3.559,4.033-7.344,7.566-11.247,10.498
									C235.553,255.827,225.459,262.938,219.706,262.938z"/>
							</g>
							<g>
								<g>
									<path style="fill:#4CC9E7;" d="M146.925,190.597c0,0,33.727,9.408,33.727,9.408s11.339,2.961,12.115-2.642
										c0.875-0.917,0.642-3.123,0.585-4.215c-0.177-3.401-0.735-6.806-1.723-10.067c-0.907-2.995-2.005-6.149-4.854-7.804
										c-3.686-2.141-8.218-1.073-11.287,1.649c-3.578,3.173-7.028,6.725-12.074,7.134c-1.95,0.158-3.454-0.383-5.285-0.765
										c-1.695-0.354-3.523-0.081-4.613,1.389c0.245-0.33-2.92-2.687-3.3-2.903c-2.028-1.155-5.349-0.788-6.301,1.664
										C143.098,185.548,144.594,189.947,146.925,190.597z"/>
								</g>
								<g>
									<circle style="fill:#4CC9E7;" cx="151.577" cy="178.676" r="2.035"/>
								</g>
							</g>
						</g>
						<g>
							<g>
								<path style="fill:#EA5F4A;" d="M185.546,176.229c0,3.145-2.549,5.694-5.694,5.694c-3.145,0-5.694-2.549-5.694-5.694
									c0-3.145,2.549-5.694,5.694-5.694C182.997,170.535,185.546,173.084,185.546,176.229z"/>
							</g>
							<g>
								<path d="M182.242,172.454c0,0.439-1.07,0.795-2.39,0.795c-1.32,0-2.39-0.356-2.39-0.795c0-0.439,1.07-0.795,2.39-0.795
									C181.172,171.659,182.242,172.015,182.242,172.454z"/>
							</g>
						</g>
					</g>
					<g>
						<g>
							<g>
								<path style="fill:#F3A7B1;" d="M157.198,198.059c5.581-3.809,12.27-0.15,17.179,3.026c2.881,1.864,5.767,3.73,8.484,5.83
									c1.379,1.066,2.714,2.191,3.975,3.396c3.148,3.009,6.165,6.106,9.589,8.904c1.792,1.465,3.579,2.937,5.343,4.435
									c0.904,0.768,3.258,2.153,3.695,3.29c-2.075-5.404-3.765-11.31-4.093-17.104c-0.115-2.04-0.088-4.268,0.737-6.176
									c0.511-1.18,1.705-2.726,3.098-2.847c1.844-0.16,2.876,2.035,3.551,3.392c3.592,7.223,6.121,14.924,9.163,22.383
									c0.048,0.117,0.096,0.234,0.143,0.352c0,0,8.529,15.313,9.11,28.687c0,0,0.194,8.335-1.163,11.436
									c0,0-1.744,9.11,5.621,31.595l21.903,58.441h-37.797l-12.793-77.824c0,0-11.824-26.167-15.507-32.952l-4.071-7.559
									c0,0-1.938-4.846,0.581-10.467l0.969-2.52l-7.947-9.789l-6.106-5.718l-13.665-10.37
									C157.198,199.901,155.753,199.046,157.198,198.059z"/>
							</g>
							<g>
								<line style="fill:#F3A7B1;" x1="205.462" y1="226.94" x2="208.224" y2="233.967"/>
							</g>
							<g>
								<g>
									<path style="fill:#DB758B;" d="M191.216,240.967c-0.24,0-0.468-0.144-0.562-0.381c-2.04-5.136-5.53-13.594-6.207-14.428
										c-0.21-0.259-0.171-0.639,0.088-0.85c0.259-0.212,0.64-0.171,0.85,0.088c1.017,1.253,5.845,13.366,6.392,14.743
										c0.123,0.31-0.028,0.661-0.339,0.784C191.366,240.953,191.29,240.967,191.216,240.967z"/>
								</g>
								<g>
									<path style="fill:#DB758B;" d="M208.942,220.682c-1.421,0-2.345-0.55-2.415-0.593c-0.284-0.175-0.373-0.547-0.198-0.831
										c0.174-0.283,0.545-0.372,0.828-0.2c0.11,0.065,2.532,1.449,5.612-1.247c0.251-0.22,0.633-0.195,0.852,0.057
										c0.22,0.251,0.194,0.633-0.057,0.852C211.803,220.263,210.183,220.682,208.942,220.682z"/>
								</g>
								<g>
									<path style="fill:#DB758B;" d="M172.902,204.63c-0.114,0-0.23-0.032-0.332-0.1c-0.279-0.184-0.355-0.559-0.172-0.837
										c1.008-1.528,0.45-2.613,0.444-2.623c-0.164-0.291-0.061-0.659,0.23-0.823c0.291-0.164,0.659-0.061,0.823,0.23
										c0.039,0.069,0.939,1.72-0.488,3.882C173.29,204.534,173.098,204.63,172.902,204.63z"/>
								</g>
								<g>
									<path style="fill:#DB758B;" d="M175.838,214.781c-0.109,0-0.22-0.029-0.319-0.092c-0.283-0.177-0.369-0.549-0.193-0.832
										l1.712-2.743c0.177-0.283,0.549-0.369,0.832-0.193c0.283,0.177,0.369,0.549,0.193,0.832l-1.712,2.743
										C176.237,214.68,176.04,214.781,175.838,214.781z"/>
								</g>
							</g>
						</g>
						<g>
							<g>
								<path style="fill:#EE2C2C;" d="M157.304,197.42c1.759,0.307,4.407,1.757,4.887,2.102c1.082,0.778,2.69,2.753,0.596,3.508
									c-1.141,0.411-2.492-0.205-3.48-0.788c-1.227-0.724-2.875-1.764-3.401-3.167C155.326,197.529,156.11,197.212,157.304,197.42
									z"/>
							</g>
							<g>
								<path style="fill:#EE2C2C;" d="M203.634,200.96c-1.148,1.778-0.746,4.403-0.122,6.298c0.348,1.059,1.202,1.979,2.27,2.33
									c0.789,0.259,1.702,0.177,2.389-0.291c1.179-0.805,1.072-2.309,0.906-3.558C208.849,204.019,205.797,197.609,203.634,200.96
									z"/>
							</g>
						</g>
					</g>
				</g>
				<g>
					<g>
						<path style="fill:#FFFFFF;" d="M224.955,300.634c-3.128,0-6.619-0.592-10.097-1.731c-9.823-3.217-16.236-9.652-14.599-14.649
							c0.407-1.242,1.258-2.283,2.53-3.092l1.249,1.962c-0.806,0.513-1.334,1.137-1.569,1.854
							c-1.06,3.236,3.956,8.716,13.113,11.715c4.223,1.383,8.429,1.904,11.845,1.466c3.068-0.393,5.13-1.543,5.658-3.155
							c0.626-1.912-1.789-5.345-5.743-8.164l1.35-1.894c3.79,2.702,7.793,7.148,6.603,10.782c-0.83,2.535-3.52,4.218-7.572,4.738
							C226.842,300.578,225.915,300.634,224.955,300.634z"/>
					</g>
				</g>
			</g>
			<g>
				<g>
					<g>
						<g>
							<path style="fill:#603725;" d="M676.827,198.415l-4.692,67.509c-0.371,5.345-2.436,10.884-20.751,9.611
								c-5.607-0.39-9.619-1.2-12.474-2.291c-6.472-2.476-7.006-6.39-6.748-10.098l4.692-67.509
								c0.782-11.25,9.552-17.416,9.253-18.284c-0.125-0.36-0.116-0.881,0.053-1.742c0.239-1.207,0.789-3.095,1.708-6.18
								c0.529-1.779,1.314-5.872,2.125-10.535c0.141-0.788,0.279-1.595,0.418-2.413c-0.478-0.71-0.701-1.573-0.552-2.466
								l2.345-14.361c0.095-0.585,0.328-1.121,0.665-1.584c-1.046-0.464-1.758-1.622-1.667-2.929
								c0.113-1.627,1.415-2.871,2.887-2.768l14.416,1.002c1.477,0.103,2.589,1.514,2.476,3.141
								c-0.092,1.318-0.966,2.375-2.083,2.674c0.265,0.505,0.422,1.068,0.436,1.655l0.345,14.939
								c0.019,0.844-0.308,1.613-0.854,2.197c0.165,5.608,0.398,10.84,0.72,12.954c0.831,5.459,1.065,7.271,0.648,8.089
								C669.771,179.846,677.609,187.166,676.827,198.415z"/>
						</g>
						<g>
							<path style="fill:#8F5E4D;" d="M667.808,139.419c-0.009,0-0.019,0-0.028-0.001l-13.285-0.923l0.056-0.804l13.285,0.923
								c0.222,0.016,0.389,0.208,0.374,0.43C668.195,139.257,668.018,139.419,667.808,139.419z"/>
						</g>
						<g>
							<path style="fill:#FAEEF2;" d="M664.648,261.973c-11.455,2.25-22.342,2.088-32.249-2.241l3.607-51.907
								c9.847,2.51,20.655,3.179,32.249,2.241L664.648,261.973z"/>
						</g>
						<g>
							<path style="fill:#FAEEF2;" d="M664.49,170.321c-0.086,0.325-0.188,0.669-0.409,0.904c-0.167,0.174-0.379,0.28-0.586,0.38
								c-3.599,1.751-6.851,4.745-10.849,5.229c-1.767,0.213-4.889,0.277-6.487-1.223c0.239-1.207,0.789-3.095,1.708-6.18
								c0.529-1.779,1.314-5.872,2.125-10.535c3.292,1.683,6.46,3.237,10.244,3.405c1.071,0.044,2.564-0.353,3.568,0.067
								C666.187,163.377,664.989,168.435,664.49,170.321z"/>
						</g>
						<g style="opacity:0.1;">
							<path d="M654.441,159.343c-0.318,0.655-0.474,1.381-0.628,2.098c-0.968,4.562-1.649,9.449-2.731,14.078
								c-0.941,4.042-1.973,7.892-4.948,10.755c-2.224,2.137-3.662,4.761-4.328,7.929c-0.92,4.395-0.763,9.15-1.026,13.645
								c-0.22,3.816-0.444,7.632-0.668,11.453c-0.493,8.471-0.986,16.943-1.484,25.414c-0.347,5.969-1.279,11.913-1.231,17.909
								c0.02,2.79,0.243,5.599,0.907,8.298c0.11,0.454,0.322,1.326,0.608,2.324c-6.472-2.476-7.006-6.39-6.748-10.098l4.692-67.509
								c0.782-11.25,9.552-17.416,9.253-18.284c-0.304-0.869,0.183-2.63,1.761-7.922c0.618-2.078,1.588-7.332,2.543-12.948
								c-0.479-0.71-0.701-1.573-0.552-2.466l2.345-14.361c0.095-0.585,0.328-1.121,0.665-1.584
								c-1.046-0.464-1.758-1.622-1.667-2.929c0.113-1.627,1.415-2.871,2.887-2.768l3.347,0.233c0,0-0.859,4.038-0.393,5.66
								C656.582,144.918,657.318,153.445,654.441,159.343z"/>
						</g>
					</g>
					<g>
						<g>
							<path style="fill:#F3A7B1;" d="M646.985,325.5v-30.495c0,0-8.797-5.571-9.97-29.322c0,0-6.645-13.191-6.646-13.195
								c-0.644-1.278-0.599-3.157-0.555-4.528c0.12-3.708,1.298-7.252,1.298-10.997c0-2.034,1.565-4.761,3.749-2.562
								c1.638,1.649,2.53,3.946,3.398,6.056c0.788,1.914,2.339,4.609,1.981,6.753c-0.098,0.586,3.91,6.646,8.503,4.789
								c0,0,6.255-2.053,12.511-13.293c0,0,7.549-17.774,7.719-18.173c2.437-5.738,3.886-11.846,8.496-16.417
								c0.939-0.931,2.008-1.77,3.233-2.291c0.85-0.362,2.068-0.907,3.007-0.597c1.402,0.463,1.101,2.15,0.941,3.313
								c-0.544,3.953-1.39,7.851-2.47,11.691c-0.935,3.325-2.403,6.639-3.185,10.06c-0.029,0.126-0.118,0.235-0.12,0.363
								c-0.017,1.095,0.661,2.279,0.971,3.366c0.899,3.14,0.525,6.383,0.773,9.608c0.326,4.241,1.202,8.414,2.132,12.557
								c0.864,3.847,2.192,7.816,0.885,11.736l-7.428,23.067c0,0-1.173,7.037-0.293,11.045l3.616,27.465H646.985z"/>
						</g>
						<g>
							<g>
								<path style="fill:#DB758B;" d="M675.037,239.701c-0.334,0-0.604-0.271-0.604-0.604c0-0.116,0-0.386,3.867-12.622
									c0.101-0.318,0.44-0.493,0.758-0.394c0.318,0.101,0.494,0.44,0.394,0.758c-1.469,4.647-3.684,11.727-3.815,12.332
									C675.6,239.469,675.345,239.701,675.037,239.701z"/>
							</g>
							<g>
								<path style="fill:#DB758B;" d="M639.165,251.137c-0.102,0-0.204-0.026-0.299-0.079c-0.29-0.166-0.39-0.535-0.225-0.824
									c0.716-1.253,1.046-3.565,1.049-3.588c0.046-0.33,0.351-0.559,0.682-0.514c0.33,0.046,0.561,0.352,0.515,0.682
									c-0.015,0.104-0.367,2.567-1.197,4.02C639.579,251.027,639.375,251.137,639.165,251.137z"/>
							</g>
							<g>
								<path style="fill:#DB758B;" d="M678.457,224.747c-0.122,0-0.244-0.037-0.351-0.113c-3.627-2.591-5.453-1.25-5.529-1.191
									c-0.262,0.202-0.64,0.158-0.845-0.101c-0.205-0.259-0.168-0.631,0.087-0.84c0.102-0.084,2.559-2.016,6.989,1.149
									c0.272,0.194,0.335,0.571,0.141,0.843C678.831,224.659,678.646,224.747,678.457,224.747z"/>
							</g>
							<g>
								<path style="fill:#DB758B;" d="M631.151,251.137c-0.057,0-0.115-0.008-0.173-0.025c-0.32-0.095-0.502-0.432-0.406-0.752
									c0.035-0.117,0.886-2.887,3.435-4.171c0.298-0.149,0.661-0.03,0.812,0.268c0.15,0.298,0.03,0.661-0.268,0.812
									c-2.089,1.052-2.813,3.413-2.82,3.437C631.652,250.967,631.412,251.137,631.151,251.137z"/>
							</g>
							<g>
								<path style="fill:#DB758B;" d="M671.03,257.979c-0.195,0-0.387-0.094-0.503-0.269c-0.185-0.278-0.11-0.652,0.167-0.838
									c5.35-3.567,3.217-7.782,3.123-7.96c-0.155-0.295-0.042-0.661,0.253-0.816c0.297-0.155,0.661-0.042,0.816,0.254
									c0.028,0.053,2.723,5.364-3.523,9.528C671.261,257.946,671.145,257.979,671.03,257.979z"/>
							</g>
							<g>
								<path style="fill:#DB758B;" d="M651.286,298.345c-0.048,0-0.098-0.006-0.147-0.018c-1.654-0.413-4.256-2.614-4.547-2.864
									c-0.253-0.217-0.283-0.598-0.066-0.852c0.217-0.253,0.599-0.283,0.852-0.066c0.732,0.627,2.886,2.317,4.054,2.609
									c0.324,0.081,0.521,0.409,0.44,0.733C651.803,298.162,651.557,298.345,651.286,298.345z"/>
							</g>
						</g>
						<g>
							<g>
								<path style="fill:#FFFFFF;" d="M632.714,234.163c0.423,0.367,0.754,0.985,0.899,1.369c0.726,1.926,1.11,5.849-1.089,7.053
									c-1.556,0.852-2.136-1.116-2.105-2.265c0.041-1.501,0.023-2.989,0.341-4.469c0.124-0.574,0.296-1.497,0.837-1.849
									C631.994,233.743,632.382,233.875,632.714,234.163z"/>
							</g>
							<g>
								<path style="fill:#FFFFFF;" d="M683.736,201.956c-0.774,0.12-1.447,0.88-1.86,1.479c-1.003,1.453-2.864,6.125,0.286,6.431
									c1.357,0.132,2.026-1.103,2.306-2.229c0.305-1.228,0.595-2.47,0.675-3.737c0.028-0.44,0.178-1.308-0.111-1.671
									C684.77,201.903,684.101,201.899,683.736,201.956z"/>
							</g>
						</g>
						<g>
							<path style="fill:#724130;" d="M646.203,304.29c0,0,20.234-0.195,21.65-0.489v12.413c0,0-9.531,3.03-21.65,0.684
								c0,0-1.173-0.391-0.88-1.857c0.098-0.489-0.047-9.188-0.047-9.188S644.735,304.305,646.203,304.29z"/>
						</g>
						<g>
							<path style="fill:#F5C13A;" d="M681.389,308.689c0,4.36-1.577,8.166-3.917,10.186c-1.135,0.982-2.451,1.542-3.853,1.542
								c-4.29,0-7.77-5.252-7.77-11.729c0-6.477,3.48-11.729,7.77-11.729c1.105,0,2.155,0.349,3.108,0.979
								C679.471,299.746,681.389,303.88,681.389,308.689z"/>
						</g>
						<g>
							<path style="fill:#FFFFFF;" d="M681.389,308.689c0,4.36-1.577,8.166-3.917,10.186c-0.686,0.305-1.413,0.466-2.167,0.466
								c-4.114,0-7.451-4.835-7.451-10.799c0-5.967,3.337-10.802,7.451-10.802c0.487,0,0.962,0.068,1.422,0.199
								C679.471,299.746,681.389,303.88,681.389,308.689z"/>
						</g>
						<g>
							<path d="M676.82,310.044l-5.021-4.509c-0.248-0.223-0.269-0.605-0.046-0.853c0.223-0.248,0.605-0.269,0.853-0.046
								l3.005,2.699v-7.029c0-0.334,0.27-0.604,0.604-0.604c0.334,0,0.604,0.271,0.604,0.604V310.044z"/>
						</g>
					</g>
				</g>
			</g>
			<g>
				<g>
					<g>
						<path style="fill:#603725;" d="M102.643,95.472l17.43,74.519c1.38,5.9,0.995,12.574-19.222,17.303
							c-6.189,1.448-10.795,1.909-14.244,1.682c-7.82-0.519-9.701-4.57-10.658-8.664l-17.43-74.519
							c-2.905-12.418,4.518-22.004,3.906-22.843c-0.255-0.347-0.419-0.913-0.523-1.9c-0.144-1.384-0.179-3.607-0.214-7.248
							c-0.021-2.098-0.537-6.783-1.215-12.093c-0.11-0.898-0.23-1.817-0.353-2.747c-0.754-0.608-1.282-1.467-1.419-2.481
							L56.449,40.18c-0.092-0.664-0.019-1.32,0.191-1.933c-1.285-0.153-2.44-1.167-2.778-2.61c-0.42-1.796,0.572-3.574,2.197-3.954
							l15.913-3.722c1.63-0.381,3.302,0.773,3.722,2.569c0.34,1.454-0.252,2.889-1.36,3.584c0.455,0.457,0.812,1.013,1.022,1.644
							l5.352,16.029c0.301,0.906,0.205,1.846-0.19,2.659c2.048,6.006,4.043,11.582,5.095,13.759
							c2.718,5.622,3.574,7.502,3.397,8.526C88.829,77.755,99.738,83.054,102.643,95.472z"/>
					</g>
					<g>
						<path style="fill:#8F5E4D;" d="M73.216,34.712c-0.005,0.001-0.011,0.003-0.017,0.004l-14.665,3.43
							c-0.237,0.056-0.475-0.092-0.53-0.329c-0.055-0.237,0.087-0.478,0.329-0.53l14.665-3.43c0.237-0.056,0.475,0.092,0.53,0.329
							C73.583,34.418,73.444,34.65,73.216,34.712z"/>
					</g>
					<g>
						<path style="fill:#FAEEF2;" d="M110.665,168.215c-11.629,6.249-23.448,9.703-35.597,8.326l-13.402-57.297
							c11.478-0.569,23.381-3.449,35.597-8.326L110.665,168.215z"/>
					</g>
					<g>
						<path style="fill:#FAEEF2;" d="M79.946,69.223c0.015,0.38,0.02,0.785-0.14,1.114c-0.122,0.244-0.316,0.429-0.507,0.607
							c-3.305,3.092-5.823,7.411-9.981,9.267c-1.838,0.819-5.191,1.929-7.418,0.84c-0.144-1.384-0.179-3.607-0.214-7.248
							c-0.021-2.098-0.537-6.783-1.215-12.093c4.118,0.722,8.06,1.345,12.206,0.265c1.172-0.309,2.653-1.236,3.878-1.116
							C79.467,61.153,79.858,67.018,79.946,69.223z"/>
					</g>
					<g style="opacity:0.1;">
						<path d="M65.429,60.709c-0.126,0.814-0.051,1.651,0.02,2.476c0.474,5.252,1.368,10.761,1.741,16.124
							c0.331,4.682,0.498,9.186-1.763,13.271c-1.691,3.051-2.371,6.365-2.035,10.011c0.471,5.056,2.225,10.142,3.439,15.088
							c1.035,4.197,2.064,8.396,3.095,12.6c2.291,9.319,4.581,18.638,6.867,27.959c1.615,6.566,2.589,13.299,4.639,19.764
							c0.951,3.008,2.129,5.969,3.746,8.665c0.27,0.454,0.79,1.326,1.431,2.309c-7.82-0.518-9.701-4.57-10.658-8.663l-17.43-74.519
							c-2.905-12.418,4.518-22.004,3.906-22.843c-0.618-0.837-0.679-2.903-0.737-9.148c-0.025-2.452-0.727-8.453-1.568-14.84
							c-0.754-0.608-1.282-1.467-1.419-2.48l-2.252-16.301c-0.092-0.664-0.019-1.32,0.191-1.933c-1.285-0.153-2.44-1.167-2.778-2.61
							c-0.42-1.796,0.572-3.574,2.197-3.954l3.694-0.864c0,0,0.418,4.65,1.461,6.247C62.934,44.406,66.572,53.375,65.429,60.709z"/>
					</g>
				</g>
				<g>
					<path style="fill:#F3A7B1;" d="M28.174,279.427c0.023-0.186,0.047-0.371,0.071-0.557c1.781-13.757,5.31-27.351,7.892-40.998
						c2.407-12.709,4.814-25.418,7.22-38.127c0.488-2.576,0.976-5.153,1.464-7.729c0,0-1.948-16.205,3.867-32.592
						c0,0-0.308-21.399,7.252-27.386c0,0-0.13-5.544,7.202-18.443l1.711-4.935c0,0,0.369-3.729,14.447-7.323
						c5.807-1.483,11.771-2.516,17.632-3.774c2.069-0.444,3.235,3.115,3.267,4.642c0.082,3.868-3.526,6.107-6.724,7.339
						c-4.845,1.866-10.276,2.631-15.327,3.829l-6.171,15.09l15.42-4.801c0,0,4.597-1.544,9.021,3.377l3.664,3.177l11.271,7.501
						c0,0,8.295,5.809-2.385,9.585c0,0,9.617,6.561-2.761,10.246l-1.887,0.24c0,0,3.224,6.646-5.718,6.596l-9.559-1.276
						l-7.334,1.739c0,0,1.915,12.029-11.663,17.439c0,0-0.427,9.604-0.815,15.291l8.367,157.16L31.427,367.44
						c-1.844-6.702-1.166-14.69-1.927-21.604c-0.84-7.632-1.442-15.29-1.804-22.959C27.023,308.64,26.402,293.622,28.174,279.427z"
						/>
				</g>
				<g>
					<g>
						<path style="fill:#FFFFFF;" d="M92.409,99.522c1.434-0.395,2.791-1.138,4.279-1.335c2.577-0.341,2.92,3.38,1.433,4.74
							c-0.627,0.573-1.439,0.898-2.251,1.149c-1.041,0.323-2.126,0.547-3.215,0.502c-1.277-0.052-3.662-0.635-3.518-2.338
							C89.138,102.24,89.296,100.379,92.409,99.522z"/>
					</g>
					<g>
						<path style="fill:#FFFFFF;" d="M109.175,137.081c-0.033,0.011-0.063,0.025-0.093,0.044c-0.637,0.4-0.339,2.697-0.294,3.34
							c0.132,1.899,1.791,4.466,4.009,3.577c2.871-1.151,0.782-3.929-0.739-5.269C111.601,138.368,109.922,136.828,109.175,137.081z
							"/>
					</g>
					<g>
						<path style="fill:#FFFFFF;" d="M105.692,149.982c0,0,0.876-3.62,3.595-1.512c0.986,0.764,2.214,2.23,2.234,3.513
							c0.015,0.966-0.528,1.938-1.394,2.367C107.511,155.645,105.906,151.96,105.692,149.982z"/>
					</g>
					<g>
						<path style="fill:#FFFFFF;" d="M100.442,160.999c0.45,0.342,1.006,0.557,1.611,0.549c4.068-0.057,2.506-5.48-1.219-4.442
							C98.667,157.709,99.06,159.949,100.442,160.999z"/>
					</g>
				</g>
				<g>
					<g>
						<path style="fill:#DB758B;" d="M78.836,113.889c-0.046,0.013-0.095,0.021-0.144,0.023l-3.156,0.151
							c-0.365,0.017-0.675-0.264-0.693-0.629c-0.017-0.365,0.267-0.675,0.629-0.693l3.156-0.151
							c0.365-0.017,0.675,0.264,0.693,0.629C79.336,113.535,79.128,113.809,78.836,113.889z"/>
					</g>
					<g>
						<path style="fill:#DB758B;" d="M89.217,163.746c-0.008,0.002-0.015,0.004-0.023,0.006c-3.619,0.858-17.592,4.425-17.733,4.461
							c-0.354,0.09-0.714-0.123-0.805-0.477c-0.091-0.354,0.116-0.693,0.477-0.805c0.141-0.036,14.125-3.606,17.756-4.467
							c0.355-0.084,0.712,0.136,0.797,0.491C89.767,163.303,89.559,163.652,89.217,163.746z"/>
					</g>
					<g>
						<path style="fill:#DB758B;" d="M92.85,134.113c-0.127,0.035-0.265,0.032-0.398-0.015c-0.344-0.123-0.523-0.502-0.4-0.846
							c1.418-3.959-0.179-6.776-0.196-6.804c-0.184-0.316-0.077-0.721,0.239-0.905c0.316-0.184,0.721-0.076,0.905,0.239
							c0.079,0.136,1.922,3.384,0.298,7.917C93.223,133.909,93.051,134.057,92.85,134.113z"/>
					</g>
					<g>
						<path style="fill:#DB758B;" d="M92.707,148.8c-0.118,0.033-0.247,0.033-0.372-0.007c-0.349-0.109-0.544-0.48-0.435-0.829
							c1.005-3.221-0.06-7.425-0.071-7.467c-0.09-0.35,0.117-0.708,0.465-0.804c0.003-0.001,0.006-0.002,0.01-0.002
							c0.354-0.092,0.715,0.12,0.806,0.474c0.048,0.186,1.173,4.607,0.053,8.194C93.094,148.583,92.917,148.743,92.707,148.8z"/>
					</g>
					<g>
						<path style="fill:#DB758B;" d="M89.985,160.221c-0.353,0.097-0.717-0.11-0.814-0.462c-0.097-0.352,0.11-0.717,0.463-0.814
							c2.082-0.573,1.428-4.753,1.421-4.795c-0.061-0.36,0.179-0.707,0.541-0.764c0.36-0.062,0.702,0.18,0.764,0.541
							C92.397,154.147,93.244,159.325,89.985,160.221z"/>
					</g>
					<g>
						<path style="fill:#DB758B;" d="M109.142,147.94c-0.17,0.047-0.357,0.026-0.519-0.072c-1.827-1.109-3.643-2.29-5.4-3.432
							c-3.228-2.098-6.566-4.268-10.049-6.044c-3.1-1.581-5.744-0.825-8.807,0.054c-0.875,0.251-1.78,0.51-2.732,0.725l-5.3,1.195
							c-0.357,0.081-0.711-0.144-0.791-0.5c-0.08-0.356,0.141-0.706,0.5-0.791l5.3-1.195c0.915-0.207,1.801-0.46,2.659-0.706
							c3.191-0.915,6.208-1.778,9.773,0.04c3.545,1.807,6.913,3.997,10.169,6.113c1.748,1.137,3.556,2.312,5.365,3.411
							c0.313,0.19,0.412,0.597,0.222,0.909C109.44,147.796,109.299,147.897,109.142,147.94z"/>
					</g>
					<g>
						<path style="fill:#DB758B;" d="M104.494,158.427c-0.169,0.046-0.356,0.026-0.518-0.072c-0.9-0.543-1.79-1.141-2.732-1.774
							c-2.597-1.745-5.283-3.548-8.105-4.087c-3.732-0.712-7.633,0.096-11.406,0.878c-0.584,0.121-1.164,0.241-1.74,0.355
							c-0.358,0.071-0.707-0.162-0.778-0.521c-0.071-0.359,0.158-0.705,0.521-0.778c0.572-0.113,1.149-0.232,1.728-0.353
							c3.899-0.808,7.932-1.644,11.923-0.882c3.088,0.589,5.888,2.47,8.595,4.288c0.928,0.624,1.806,1.213,2.678,1.74
							c0.313,0.189,0.413,0.596,0.225,0.908C104.793,158.282,104.651,158.383,104.494,158.427z"/>
					</g>
				</g>
				<g>
					<path style="fill:#FF3449;" d="M33.542,250.554c0,0,20.816,11.032,38.571,1.195c0,0,5.299-0.343,3.795,6.346
						c0.007-0.031,3.002,1.803,3.329,2.163c1.666,1.835,1.192,4.06-0.061,6.016c-1.141,1.78-3.313,3.655-3.459,5.897
						c-0.211,3.249,4.066,5.802,2.083,9.063c-1.519,2.5,0.605,6.118,1.569,8.438c1.398,3.363-0.238,7.34,1.808,10.396
						c1.151,1.72,2.584,2.644,3.192,4.876c0.959,3.524,0.024,7.026-0.224,10.567c-0.486,6.933,2.868,13.082,4.768,19.542
						c1.473,5.009,3.208,12.559-0.909,16.819c0,0-58.569,16.115-58.651,16.138c-0.765,0.21-3.041-2.167-3.478-2.609
						c-2.295-2.321-3.693-5.337-3.787-8.619c-0.13-4.532,2.001-8.758,2.377-13.245c0.482-5.758-1.02-11.322-1.405-17.02
						c-0.955-14.139,0.687-28.552,0.928-42.715c0.144-8.456,0.367-18.764,4.672-26.306
						C28.658,257.497,27.047,250.927,33.542,250.554z"/>
				</g>
				<g>
					<path style="fill:#FF8073;" d="M64.709,264.749c-10.425,2.868-22.009,2.122-22.697,2.074c-0.486-0.034-0.853-0.455-0.819-0.941
						c0.034-0.486,0.455-0.853,0.941-0.819c0.233,0.016,23.417,1.508,33.17-7.609c0.355-0.332,0.914-0.314,1.247,0.042
						c0.333,0.356,0.314,0.914-0.042,1.247C73.418,261.632,69.169,263.522,64.709,264.749z"/>
				</g>
				<g>
					<path style="fill:#FF8073;" d="M53.471,284.432c-6.661,1.833-11.229,2.105-11.573,2.123c-4.891,0.498-8.683-0.577-11.228-3.197
						c-4.243-4.368-3.382-11.366-3.343-11.661c0.064-0.483,0.506-0.824,0.99-0.76c0.483,0.063,0.823,0.506,0.76,0.989
						c-0.011,0.089-0.776,6.47,2.866,10.21c2.151,2.209,5.455,3.104,9.82,2.661c0.194-0.012,15.417-0.933,31.104-10.797
						c0.413-0.258,0.957-0.135,1.217,0.277c0.259,0.413,0.135,0.957-0.277,1.217C66.389,280.158,59.165,282.865,53.471,284.432z"/>
				</g>
			</g>
			<g>
				<g>
					<g>
						<path style="fill:#724130;" d="M741.69,320.227c0.633-9.698,1.266-19.395,1.899-29.093c1.295-19.839,2.59-39.677,3.885-59.516
							c1.053-16.138,2.107-32.275,3.16-48.413c0.376-5.755,0.499-12.15-3.905-16.472c-1.68-1.648-3.631-3.008-5.243-4.721
							c-4.147-4.406-3.261-9.193-5.365-14.274c0-0.001-5.579-20.754-5.579-20.754s-2.403-8.171-0.591-12.378
							c-2.129-3.717-4.182-7.479-6.434-11.124c-1.067-1.727-2.22-3.398-3.394-5.054c-1.047-1.477-2.494-2.957-2.87-4.779
							c-0.456-2.203-0.755-4.576,0.035-6.744c0.801-2.194,3.733-3.881,5.995-2.903c1.24,0.536,2.517,2.349,3.471,3.335
							c1.262,1.303,2.501,2.628,3.714,3.978c2.779,3.092,5.866,6.383,7.932,10.014c0,0,5.315,9.343,5.315,9.343l1.567-11.311
							l-7.715-41.953c0,0-9.349-21.276,4.196-25.855c0,0,3.016,0.418,2.721,6.986l1.995,13.341l10.871,24.714l20.39,35.332
							c0,0,2.415,10.863,1.05,19.05l-1.688,33.273c0,0,12.163,130.682,13.347,155.976
							C790.448,320.227,741.69,320.227,741.69,320.227z"/>
					</g>
					<g>
						<g>
							<path style="fill:#633525;" d="M731.361,104.61c-0.665,0-1.371-0.092-2.119-0.278c-0.468-0.116-0.754-0.59-0.638-1.058
								c0.116-0.468,0.589-0.754,1.058-0.638c1.609,0.399,2.926,0.266,3.915-0.394c1.506-1.004,1.843-2.96,1.846-2.979
								c0.073-0.477,0.52-0.802,0.996-0.731c0.477,0.073,0.804,0.519,0.731,0.996c-0.017,0.11-0.44,2.726-2.604,4.169
								C733.634,104.306,732.567,104.61,731.361,104.61z"/>
						</g>
						<g>
							<path style="fill:#633525;" d="M760.778,174.623c-7.924,0-13.363-5.766-13.428-5.837c-0.327-0.354-0.306-0.907,0.049-1.234
								c0.354-0.327,0.907-0.305,1.234,0.048c0.297,0.32,7.248,7.641,16.822,4.517c0.459-0.15,0.952,0.101,1.102,0.56
								c0.15,0.458-0.101,0.952-0.559,1.101C764.168,174.375,762.42,174.623,760.778,174.623z"/>
						</g>
						<g>
							<path style="fill:#633525;" d="M768.801,127.001c-0.097,0-0.195-0.016-0.291-0.051c-4.748-1.681-7.471-5.455-10.104-9.104
								c-1.472-2.039-2.993-4.148-4.843-5.832c-1.974-1.797-4.174-3.584-6.726-5.461c-0.389-0.286-0.472-0.833-0.186-1.222
								c0.286-0.388,0.832-0.472,1.221-0.186c2.601,1.914,4.848,3.738,6.867,5.577c1.984,1.806,3.559,3.99,5.083,6.102
								c2.59,3.59,5.037,6.98,9.271,8.48c0.455,0.161,0.693,0.66,0.532,1.115C769.498,126.777,769.161,127.001,768.801,127.001z"/>
						</g>
						<g>
							<path style="fill:#633525;" d="M747.686,150.932c-0.225,0-0.45-0.086-0.62-0.258c-0.34-0.343-0.337-0.896,0.005-1.236
								c11.799-11.692,6.95-33.659,6.9-33.88c-0.107-0.47,0.187-0.939,0.657-1.046c0.47-0.107,0.938,0.186,1.046,0.657
								c0.215,0.938,5.121,23.13-7.374,35.511C748.131,150.847,747.909,150.932,747.686,150.932z"/>
						</g>
						<g>
							<g>
								<path style="fill:#633525;" d="M738.96,52.7c-0.032,0-0.064,0-0.096-0.001c-1.919-0.043-3.18-1.395-3.232-1.452
									c-0.326-0.356-0.302-0.908,0.054-1.234c0.354-0.325,0.904-0.303,1.23,0.049c0.021,0.021,0.846,0.873,2.005,0.89
									c0.839,0.017,1.682-0.406,2.524-1.245c0.341-0.341,0.895-0.34,1.235,0.002c0.341,0.342,0.34,0.895-0.002,1.235
									C741.509,52.11,740.259,52.7,738.96,52.7z"/>
							</g>
						</g>
						<g>
							<path style="fill:#633525;" d="M739.551,119.962c-0.44,0-0.818-0.331-0.867-0.778c-0.431-3.906,4.196-8.898,4.393-9.108
								c0.329-0.352,0.882-0.371,1.234-0.041c0.352,0.329,0.371,0.882,0.041,1.234c-1.19,1.274-4.217,5.144-3.932,7.722
								c0.053,0.48-0.293,0.911-0.772,0.964C739.615,119.96,739.583,119.962,739.551,119.962z"/>
						</g>
					</g>
				</g>
				<g>
					<g>
						<path style="fill:#FF3449;" d="M807.571,40.744c-5.017,3.583-10.035,7.159-15.052,10.741
							c-10.849,7.739-21.7,15.483-32.555,23.224c-7.382,5.27-14.762,10.536-22.146,15.799c-3.007,2.149-6.021,4.299-9.033,6.446
							c-2.284,1.631-4.566,3.258-6.85,4.889c-2.333,1.666-5.014,4.261-8.169,3.613c-0.243-0.051-0.461-0.11-0.651-0.182
							c-4.022-1.49,3.674-7.298,4.918-8.487c3.534-3.387,7.068-6.774,10.606-10.158c0.907-0.867,1.808-1.732,2.715-2.6
							c8.762-8.396,17.536-16.796,26.303-25.189c8.963-8.586,17.931-17.17,26.894-25.756c3.324-3.179,6.643-6.361,9.963-9.542
							l9.324,12.282L807.571,40.744z"/>
					</g>
					<g>
						<path style="fill:#FAEEF2;" d="M737.818,90.509c-3.007,2.149-6.021,4.299-9.033,6.446c-2.284,1.631-4.566,3.258-6.85,4.889
							c-2.333,1.666-5.014,4.261-8.169,3.613c-5.42-1.107,2.964-7.424,4.267-8.669c3.534-3.387,7.068-6.774,10.606-10.158
							c0.907-0.867,1.808-1.732,2.715-2.6L737.818,90.509z"/>
					</g>
					<g style="opacity:0.1;">
						<path d="M807.571,40.744c-5.017,3.583-10.035,7.159-15.052,10.741c-10.849,7.739-21.7,15.483-32.555,23.224
							c-7.382,5.27-14.762,10.536-22.146,15.799c-3.007,2.149-6.021,4.299-9.033,6.446c-2.284,1.631-4.566,3.258-6.85,4.889
							c-2.333,1.666-5.014,4.261-8.169,3.613c-0.243-0.051-0.461-0.11-0.651-0.182l90.722-69.449L807.571,40.744z"/>
					</g>
				</g>
				<g>
					<path style="fill:#724130;" d="M701.951,61.545c0,0-4.996,6.481,11.104,11.938l6.182,2.342c0,0,4.851,6.572,13.659,5.325
						l18.605,4.012l3.169,2.642l-21.016,3.032c0,0-4.631,7.914,9.294,8.357l11.262-1.412l6.762,3.703c0,0,4.557,11.014,13.869,5.422
						l-3.49-11.925c0,0-1.068-4.522-4.765-6.654l-3.489-10.32c0,0-0.079-1.65-4.683-4.286c0,0-17.247-5.309-22.916-5.07
						c0,0-19.042-5.302-21.772-5.936l-6.685-2.412C707.041,60.304,702.574,58.126,701.951,61.545z"/>
				</g>
				<g>
					<path style="fill:#633525;" d="M762.849,102.777c-0.857,0-1.679-0.239-2.243-0.499l-0.054-0.027l-6.762-3.703
						c-0.423-0.231-0.578-0.763-0.347-1.186c0.232-0.423,0.763-0.578,1.186-0.346l6.729,3.685c0.214,0.09,2.032,0.817,2.844-0.261
						c0.29-0.386,0.838-0.462,1.223-0.172c0.385,0.29,0.462,0.838,0.172,1.224C764.868,102.46,763.836,102.777,762.849,102.777z"/>
				</g>
				<g>
					<path style="fill:#633525;" d="M752.311,86.155c-0.507,0-0.875-0.096-1.043-0.15l-17.884-3.856
						c-7.463,1.449-13.412-4.25-13.663-4.495c-1.031-0.986-1.633-2.348-1.644-3.731c-0.011-1.336,0.516-2.599,1.483-3.556
						c1.756-1.737,4.218-1.781,6.391-1.82c0.484-0.009,0.941-0.017,1.377-0.043l5.966-0.357c0.484-0.023,0.895,0.338,0.924,0.82
						c0.029,0.482-0.338,0.896-0.82,0.924l-5.967,0.357c-0.473,0.028-0.969,0.037-1.45,0.046c-1.935,0.035-3.935,0.071-5.193,1.315
						c-0.63,0.623-0.972,1.439-0.965,2.299c0.008,0.914,0.413,1.821,1.111,2.489c0.061,0.059,5.651,5.394,12.277,4.004l0.181-0.038
						l18.439,3.989c0.047,0.015,1.572,0.527,3.445-1.678c0.313-0.368,0.864-0.412,1.231-0.1c0.367,0.313,0.412,0.864,0.1,1.231
						C754.949,85.759,753.343,86.155,752.311,86.155z"/>
				</g>
				<g>
					<path style="fill:#633525;" d="M742.99,100.069l-0.067-0.002c-4.97-0.144-8.246-1.421-9.738-3.797
						c-1.684-2.682-0.385-5.664-0.328-5.79c0.197-0.44,0.714-0.637,1.154-0.441c0.439,0.197,0.637,0.711,0.442,1.151
						c-0.012,0.028-0.972,2.282,0.22,4.164c1.146,1.808,3.992,2.832,8.234,2.965l10.994-1.378c1.142-0.806,1.722-2.511,1.728-2.529
						c0.152-0.457,0.646-0.706,1.103-0.554c0.457,0.151,0.706,0.643,0.556,1.101c-0.033,0.101-0.829,2.474-2.622,3.569l-0.16,0.098
						L742.99,100.069z"/>
				</g>
				<g>
					<path style="fill:#633525;" d="M741.621,90.447c-0.388,0-0.742-0.26-0.845-0.653c-0.122-0.467,0.158-0.944,0.625-1.065
						c17.284-4.503,25.644-1.062,25.991-0.914c0.444,0.19,0.649,0.703,0.46,1.147c-0.189,0.442-0.702,0.648-1.145,0.46
						c-0.092-0.039-8.25-3.332-24.866,0.997C741.768,90.438,741.694,90.447,741.621,90.447z"/>
				</g>
				<g>
					<g>
						<path style="fill:#FFFFFF;" d="M713.854,64.215c-1.157,4.818-10.784,0.198-11.512-2.917c-0.001-0.004-0.875-3.751,7.032-0.153
							c1.414,0.643,2.781,1.264,4.02,2.225c0.226,0.175,0.465,0.393,0.478,0.679C713.873,64.104,713.867,64.16,713.854,64.215z"/>
					</g>
					<g>
						<path style="fill:#FFFFFF;" d="M720.598,72.103c-0.102,0.424-0.043,0.911,0.226,1.468c1.04,2.151,4.733,2.766,6.849,2.572
							c0,0,4.876-0.446,5.44-2.853c0,0,1.503-2.922-4.534-3.986C726.795,69.292,721.17,69.721,720.598,72.103z"/>
					</g>
					<g>
						<path style="fill:#FFFFFF;" d="M733.508,94.026c0.058,0.084,0.124,0.165,0.198,0.24c0.361,0.367,0.856,0.569,1.345,0.732
							c2.441,0.814,6.616,1.472,8.392-0.987c0.907-1.257,0.66-3.018-0.821-3.625c-1.549-0.636-3.317-0.467-4.931-0.226
							c-1.321,0.198-3.752,0.171-4.331,1.659C733.085,92.524,733.074,93.392,733.508,94.026z"/>
					</g>
				</g>
			</g>
		</g>
	</g>
	<g>
		<defs>
			<rect id="SVGID_00000026853862141659052540000015115964327105883288_" width="820" height="312"/>
		</defs>
		<clipPath id="SVGID_00000081634128031068332430000001723989649999762842_">
			<use xlink:href="#SVGID_00000026853862141659052540000015115964327105883288_"  style="overflow:visible;"/>
		</clipPath>
		<g style="clip-path:url(#SVGID_00000081634128031068332430000001723989649999762842_);">
			<g>
				<polygon style="fill:#FFC901;" points="223.159,147.869 226.643,143.419 233,143.998 228.848,149.038 				"/>
				<polygon style="fill:#01C0C2;" points="331.705,26.671 331.427,25.964 332.113,25.612 332.392,26.319 				"/>
				<polygon style="fill:#FF3449;" points="482.126,23.847 484.936,26.671 492.86,24.83 488.406,20.461 				"/>
				<polygon style="fill:#FF3449;" points="564.924,154.37 569.022,162.915 574.074,159.614 568.388,149.085 				"/>
				<polygon style="fill:#FF3449;" points="151.128,107.402 155.5,113.712 161.083,111.369 154.997,103.586 				"/>
				<polygon style="fill:#01C0C2;" points="643.472,94.13 640.877,98.872 643.27,103.586 646.333,97.114 				"/>
				<polygon style="fill:#FFC901;" points="511.685,287.964 510.364,291.185 507.712,290.832 509.293,287.183 				"/>
				<polygon style="fill:#01C0C2;" points="765.192,21.906 766.596,25.982 765.251,29.319 764.333,23.87 				"/>
				<polygon style="fill:#01C0C2;" points="309.844,37.667 305.971,33.29 303.134,38.279 				"/>
				<polygon style="fill:#01C0C2;" points="709.667,275.667 705.794,271.29 702.957,276.279 				"/>
				<path style="fill:#01C0C2;" d="M263.278,210.068l-1.798-5.223c4.708,3.228,4.708,3.228,4.708,3.228L263.278,210.068z"/>
				<polygon style="fill:#FF3449;" points="309.878,286.417 307.306,279.652 303.099,286.025 				"/>
				<polygon style="fill:#FF3449;" points="27.407,182.986 24.835,176.221 20.628,182.594 				"/>
			</g>
			<g style="opacity:0.47;">
				<path style="fill:#FFFFFF;" d="M357.677,18.471c0,1.107-0.898,2.005-2.005,2.005c-1.107,0-2.005-0.898-2.005-2.005
					c0-1.107,0.898-2.005,2.005-2.005C356.779,16.466,357.677,17.363,357.677,18.471z"/>
				<path style="fill:#FFFFFF;" d="M456.338,282.692c0,1.107-0.898,2.005-2.005,2.005c-1.107,0-2.005-0.898-2.005-2.005
					s0.898-2.005,2.005-2.005C455.441,280.687,456.338,281.585,456.338,282.692z"/>
				<path style="fill:#FFFFFF;" d="M553.586,217.663c0-1.107,0.898-2.005,2.005-2.005c1.107,0,2.005,0.898,2.005,2.005
					c0,1.107-0.898,2.005-2.005,2.005C554.483,219.668,553.586,218.77,553.586,217.663z"/>
				<path style="fill:#FFFFFF;" d="M426.243,22.481c0-1.107,0.898-2.005,2.005-2.005c1.107,0,2.005,0.898,2.005,2.005
					s-0.898,2.005-2.005,2.005C427.141,24.486,426.243,23.588,426.243,22.481z"/>
				<path style="fill:#FFFFFF;" d="M99.667,24.486c0,0.778-0.631,1.409-1.409,1.409c-0.778,0-1.409-0.631-1.409-1.409
					c0-0.778,0.631-1.409,1.409-1.409C99.036,23.076,99.667,23.707,99.667,24.486z"/>
				<path style="fill:#FFFFFF;" d="M560.375,120.977c0,0.778-0.631,1.409-1.409,1.409c-0.779,0-1.41-0.631-1.41-1.409
					c0-0.778,0.631-1.409,1.41-1.409C559.744,119.567,560.375,120.198,560.375,120.977z"/>
				<path style="fill:#FFFFFF;" d="M334.158,256.465c0,0.778-0.631,1.409-1.409,1.409c-0.778,0-1.409-0.631-1.409-1.409
					c0-0.778,0.631-1.409,1.409-1.409C333.527,255.055,334.158,255.686,334.158,256.465z"/>
				<path style="fill:#FFFFFF;" d="M693.591,31.076c0-0.778,0.631-1.409,1.409-1.409c0.778,0,1.409,0.631,1.409,1.409
					c0,0.778-0.631,1.409-1.409,1.409C694.222,32.485,693.591,31.854,693.591,31.076z"/>
				<path style="fill:#FFFFFF;" d="M169.514,91c0-0.778,0.631-1.41,1.41-1.41c0.778,0,1.409,0.631,1.409,1.41
					c0,0.778-0.631,1.409-1.409,1.409C170.145,92.409,169.514,91.778,169.514,91z"/>
				<path style="fill:#FFFFFF;" d="M148.181,291.915c0-0.778,0.631-1.409,1.409-1.409c0.778,0,1.409,0.631,1.409,1.409
					c0,0.778-0.631,1.409-1.409,1.409C148.812,293.325,148.181,292.694,148.181,291.915z"/>
				<path style="fill:#FFFFFF;" d="M312.965,294.734c0-0.778,0.631-1.409,1.409-1.409c0.778,0,1.409,0.631,1.409,1.409
					c0,0.778-0.631,1.41-1.409,1.41C313.596,296.144,312.965,295.513,312.965,294.734z"/>
				<path style="fill:#FFFFFF;" d="M264.607,82.51c0-0.778,0.631-1.409,1.409-1.409c0.778,0,1.409,0.631,1.409,1.409
					c0,0.778-0.631,1.409-1.409,1.409C265.238,83.92,264.607,83.288,264.607,82.51z"/>
				<path style="fill:#FFFFFF;" d="M670.333,100.333c0,0.778-0.631,1.41-1.409,1.41c-0.779,0-1.409-0.631-1.409-1.41
					c0-0.778,0.631-1.409,1.409-1.409C669.702,98.924,670.333,99.555,670.333,100.333z"/>
				<path style="fill:#FFFFFF;" d="M267.426,262.311c0,0.778-0.631,1.409-1.409,1.409c-0.778,0-1.409-0.631-1.409-1.409
					c0-0.779,0.631-1.41,1.409-1.41C266.795,260.901,267.426,261.533,267.426,262.311z"/>
				<path style="fill:#FFFFFF;" d="M604.333,238.847c0,0.778-0.631,1.409-1.409,1.409c-0.778,0-1.409-0.631-1.409-1.409
					c0-0.778,0.631-1.409,1.409-1.409C603.702,237.438,604.333,238.069,604.333,238.847z"/>
				<circle style="fill:#FFFFFF;" cx="377.517" cy="284.101" r="1.409"/>
				<path style="fill:#FFFFFF;" d="M799.076,201.818c0,0.778-0.631,1.409-1.409,1.409c-0.779,0-1.409-0.631-1.409-1.409
					c0-0.778,0.631-1.409,1.409-1.409C798.445,200.409,799.076,201.04,799.076,201.818z"/>
			</g>
		</g>
	</g>
	<path style="fill:#FFC901;" d="M506.666,260.11H313.335c-7.217,0-13.123-5.905-13.123-13.123l0,0
		c0-7.217,5.905-13.123,13.123-13.123h193.331c7.218,0,13.123,5.905,13.123,13.123l0,0
		C519.789,254.205,513.884,260.11,506.666,260.11z"/>
</g>
<g id="TEXTS">
	<g>
		<g>
			<g>
				<g>
					
						<text transform="matrix(1 0 0 1 299.4077 215.9209)" style="fill:#FFFFFF; font-family:'Staatliches-Regular'; font-size:75.491px;">opening</text>
				</g>
				<g>
					
						<text transform="matrix(1 0 0 1 299.7163 149.8418)" style="fill:#FFC901; font-family:'Staatliches-Regular'; font-size:96.1098px;">Grand</text>
				</g>
			</g>
			<g>
				<text transform="matrix(1 0 0 1 342.7104 62.9199)" style="fill:#FFFFFF; font-family:'Poppins-Medium'; font-size:12.1618px;">Youre invited to our</text>
			</g>
		</g>
		<g>
			<text transform="matrix(1 0 0 1 326.4961 251.4121)" style="fill:#FFFFFF; font-family:'Poppins-Bold'; font-size:13.4199px;">December 30 | Thursday</text>
		</g>
	</g>
</g>
</svg>
